<svg width="1338" height="146" viewBox="0 0 1338 146" fill="none" xmlns="http://www.w3.org/2000/svg">
<path d="M381.672 12.54V15.144H376.492V32H373.3V15.144H368.092V12.54H381.672ZM388.657 18.812C389.123 18.028 389.739 17.4213 390.505 16.992C391.289 16.544 392.213 16.32 393.277 16.32V19.624H392.465C391.214 19.624 390.262 19.9413 389.609 20.576C388.974 21.2107 388.657 22.312 388.657 23.88V32H385.465V16.572H388.657V18.812ZM410.743 16.572V32H407.551V30.18C407.047 30.8147 406.384 31.3187 405.563 31.692C404.76 32.0467 403.901 32.224 402.987 32.224C401.773 32.224 400.681 31.972 399.711 31.468C398.759 30.964 398.003 30.2173 397.443 29.228C396.901 28.2387 396.631 27.044 396.631 25.644V16.572H399.795V25.168C399.795 26.5493 400.14 27.6133 400.831 28.36C401.521 29.088 402.464 29.452 403.659 29.452C404.853 29.452 405.796 29.088 406.487 28.36C407.196 27.6133 407.551 26.5493 407.551 25.168V16.572H410.743ZM421.114 32.252C419.901 32.252 418.809 32.0373 417.838 31.608C416.886 31.16 416.13 30.5627 415.57 29.816C415.01 29.0507 414.712 28.2013 414.674 27.268H417.978C418.034 27.9213 418.342 28.472 418.902 28.92C419.481 29.3493 420.2 29.564 421.058 29.564C421.954 29.564 422.645 29.396 423.13 29.06C423.634 28.7053 423.886 28.2573 423.886 27.716C423.886 27.1373 423.606 26.708 423.046 26.428C422.505 26.148 421.637 25.84 420.442 25.504C419.285 25.1867 418.342 24.8787 417.614 24.58C416.886 24.2813 416.252 23.824 415.71 23.208C415.188 22.592 414.926 21.78 414.926 20.772C414.926 19.9507 415.169 19.204 415.654 18.532C416.14 17.8413 416.83 17.3 417.726 16.908C418.641 16.516 419.686 16.32 420.862 16.32C422.617 16.32 424.026 16.768 425.09 17.664C426.173 18.5413 426.752 19.7453 426.826 21.276H423.634C423.578 20.5853 423.298 20.0347 422.794 19.624C422.29 19.2133 421.609 19.008 420.75 19.008C419.91 19.008 419.266 19.1667 418.818 19.484C418.37 19.8013 418.146 20.2213 418.146 20.744C418.146 21.1547 418.296 21.5 418.594 21.78C418.893 22.06 419.257 22.284 419.686 22.452C420.116 22.6013 420.75 22.7973 421.59 23.04C422.71 23.3387 423.625 23.6467 424.334 23.964C425.062 24.2627 425.688 24.7107 426.21 25.308C426.733 25.9053 427.004 26.6987 427.022 27.688C427.022 28.5653 426.78 29.3493 426.294 30.04C425.809 30.7307 425.118 31.272 424.222 31.664C423.345 32.056 422.309 32.252 421.114 32.252ZM434.755 19.176V27.716C434.755 28.2947 434.886 28.7147 435.147 28.976C435.427 29.2187 435.894 29.34 436.547 29.34H438.507V32H435.987C434.55 32 433.449 31.664 432.683 30.992C431.918 30.32 431.535 29.228 431.535 27.716V19.176H429.715V16.572H431.535V12.736H434.755V16.572H438.507V19.176H434.755ZM456.149 23.908C456.149 24.4867 456.112 25.0093 456.037 25.476H444.249C444.343 26.708 444.8 27.6973 445.621 28.444C446.443 29.1907 447.451 29.564 448.645 29.564C450.363 29.564 451.576 28.8453 452.285 27.408H455.729C455.263 28.8267 454.413 29.9933 453.181 30.908C451.968 31.804 450.456 32.252 448.645 32.252C447.171 32.252 445.845 31.9253 444.669 31.272C443.512 30.6 442.597 29.6667 441.925 28.472C441.272 27.2587 440.945 25.8587 440.945 24.272C440.945 22.6853 441.263 21.2947 441.897 20.1C442.551 18.8867 443.456 17.9533 444.613 17.3C445.789 16.6467 447.133 16.32 448.645 16.32C450.101 16.32 451.399 16.6373 452.537 17.272C453.676 17.9067 454.563 18.8027 455.197 19.96C455.832 21.0987 456.149 22.4147 456.149 23.908ZM452.817 22.9C452.799 21.724 452.379 20.7813 451.557 20.072C450.736 19.3627 449.719 19.008 448.505 19.008C447.404 19.008 446.461 19.3627 445.677 20.072C444.893 20.7627 444.427 21.7053 444.277 22.9H452.817ZM458.787 24.216C458.787 22.6667 459.104 21.2947 459.739 20.1C460.392 18.9053 461.269 17.9813 462.371 17.328C463.491 16.656 464.732 16.32 466.095 16.32C467.103 16.32 468.092 16.544 469.063 16.992C470.052 17.4213 470.836 18 471.415 18.728V11.28H474.635V32H471.415V29.676C470.892 30.4227 470.164 31.0387 469.231 31.524C468.316 32.0093 467.261 32.252 466.067 32.252C464.723 32.252 463.491 31.916 462.371 31.244C461.269 30.5533 460.392 29.6013 459.739 28.388C459.104 27.156 458.787 25.7653 458.787 24.216ZM471.415 24.272C471.415 23.208 471.191 22.284 470.743 21.5C470.313 20.716 469.744 20.1187 469.035 19.708C468.325 19.2973 467.56 19.092 466.739 19.092C465.917 19.092 465.152 19.2973 464.443 19.708C463.733 20.1 463.155 20.688 462.707 21.472C462.277 22.2373 462.063 23.152 462.063 24.216C462.063 25.28 462.277 26.2133 462.707 27.016C463.155 27.8187 463.733 28.4347 464.443 28.864C465.171 29.2747 465.936 29.48 466.739 29.48C467.56 29.48 468.325 29.2747 469.035 28.864C469.744 28.4533 470.313 27.856 470.743 27.072C471.191 26.2693 471.415 25.336 471.415 24.272ZM490.413 18.868C490.954 18.1213 491.691 17.5147 492.625 17.048C493.577 16.5627 494.631 16.32 495.789 16.32C497.151 16.32 498.383 16.6467 499.485 17.3C500.586 17.9533 501.454 18.8867 502.089 20.1C502.723 21.2947 503.041 22.6667 503.041 24.216C503.041 25.7653 502.723 27.156 502.089 28.388C501.454 29.6013 500.577 30.5533 499.457 31.244C498.355 31.916 497.133 32.252 495.789 32.252C494.594 32.252 493.53 32.0187 492.597 31.552C491.682 31.0853 490.954 30.488 490.413 29.76V32H487.221V11.28H490.413V18.868ZM499.793 24.216C499.793 23.152 499.569 22.2373 499.121 21.472C498.691 20.688 498.113 20.1 497.385 19.708C496.675 19.2973 495.91 19.092 495.089 19.092C494.286 19.092 493.521 19.2973 492.793 19.708C492.083 20.1187 491.505 20.716 491.057 21.5C490.627 22.284 490.413 23.208 490.413 24.272C490.413 25.336 490.627 26.2693 491.057 27.072C491.505 27.856 492.083 28.4533 492.793 28.864C493.521 29.2747 494.286 29.48 495.089 29.48C495.91 29.48 496.675 29.2747 497.385 28.864C498.113 28.4347 498.691 27.8187 499.121 27.016C499.569 26.2133 499.793 25.28 499.793 24.216ZM520.645 16.572L511.181 39.252H507.877L511.013 31.748L504.937 16.572H508.493L512.833 28.332L517.341 16.572H520.645ZM544.188 14.332H534.808V19.904C535.2 19.3813 535.778 18.9427 536.544 18.588C537.328 18.2333 538.158 18.056 539.036 18.056C540.604 18.056 541.873 18.392 542.844 19.064C543.833 19.736 544.533 20.5853 544.944 21.612C545.373 22.6387 545.588 23.7213 545.588 24.86C545.588 26.2413 545.317 27.4733 544.776 28.556C544.253 29.62 543.46 30.46 542.396 31.076C541.35 31.692 540.062 32 538.532 32C536.497 32 534.864 31.496 533.632 30.488C532.4 29.48 531.662 28.1453 531.42 26.484H534.528C534.733 27.3613 535.19 28.0613 535.9 28.584C536.609 29.088 537.496 29.34 538.56 29.34C539.885 29.34 540.874 28.9387 541.528 28.136C542.2 27.3333 542.536 26.2693 542.536 24.944C542.536 23.6 542.2 22.5733 541.528 21.864C540.856 21.136 539.866 20.772 538.56 20.772C537.645 20.772 536.87 21.0053 536.236 21.472C535.62 21.92 535.172 22.536 534.892 23.32H531.868V11.532H544.188V14.332ZM553.39 28.164L550.002 35.892H547.93L549.918 28.164H553.39ZM556.319 21.528C556.319 18.2987 556.861 15.7787 557.943 13.968C559.045 12.1387 560.93 11.224 563.599 11.224C566.269 11.224 568.145 12.1387 569.227 13.968C570.329 15.7787 570.879 18.2987 570.879 21.528C570.879 24.7947 570.329 27.352 569.227 29.2C568.145 31.0293 566.269 31.944 563.599 31.944C560.93 31.944 559.045 31.0293 557.943 29.2C556.861 27.352 556.319 24.7947 556.319 21.528ZM567.743 21.528C567.743 20.016 567.641 18.7373 567.435 17.692C567.249 16.6467 566.857 15.7973 566.259 15.144C565.662 14.472 564.775 14.136 563.599 14.136C562.423 14.136 561.537 14.472 560.939 15.144C560.342 15.7973 559.941 16.6467 559.735 17.692C559.549 18.7373 559.455 20.016 559.455 21.528C559.455 23.096 559.549 24.412 559.735 25.476C559.922 26.54 560.314 27.3987 560.911 28.052C561.527 28.7053 562.423 29.032 563.599 29.032C564.775 29.032 565.662 28.7053 566.259 28.052C566.875 27.3987 567.277 26.54 567.463 25.476C567.65 24.412 567.743 23.096 567.743 21.528ZM574.817 21.528C574.817 18.2987 575.358 15.7787 576.441 13.968C577.542 12.1387 579.428 11.224 582.097 11.224C584.766 11.224 586.642 12.1387 587.725 13.968C588.826 15.7787 589.377 18.2987 589.377 21.528C589.377 24.7947 588.826 27.352 587.725 29.2C586.642 31.0293 584.766 31.944 582.097 31.944C579.428 31.944 577.542 31.0293 576.441 29.2C575.358 27.352 574.817 24.7947 574.817 21.528ZM586.241 21.528C586.241 20.016 586.138 18.7373 585.933 17.692C585.746 16.6467 585.354 15.7973 584.757 15.144C584.16 14.472 583.273 14.136 582.097 14.136C580.921 14.136 580.034 14.472 579.437 15.144C578.84 15.7973 578.438 16.6467 578.233 17.692C578.046 18.7373 577.953 20.016 577.953 21.528C577.953 23.096 578.046 24.412 578.233 25.476C578.42 26.54 578.812 27.3987 579.409 28.052C580.025 28.7053 580.921 29.032 582.097 29.032C583.273 29.032 584.16 28.7053 584.757 28.052C585.373 27.3987 585.774 26.54 585.961 25.476C586.148 24.412 586.241 23.096 586.241 21.528ZM593.314 21.528C593.314 18.2987 593.856 15.7787 594.938 13.968C596.04 12.1387 597.925 11.224 600.594 11.224C603.264 11.224 605.14 12.1387 606.222 13.968C607.324 15.7787 607.874 18.2987 607.874 21.528C607.874 24.7947 607.324 27.352 606.222 29.2C605.14 31.0293 603.264 31.944 600.594 31.944C597.925 31.944 596.04 31.0293 594.938 29.2C593.856 27.352 593.314 24.7947 593.314 21.528ZM604.738 21.528C604.738 20.016 604.636 18.7373 604.43 17.692C604.244 16.6467 603.852 15.7973 603.254 15.144C602.657 14.472 601.77 14.136 600.594 14.136C599.418 14.136 598.532 14.472 597.934 15.144C597.337 15.7973 596.936 16.6467 596.73 17.692C596.544 18.7373 596.45 20.016 596.45 21.528C596.45 23.096 596.544 24.412 596.73 25.476C596.917 26.54 597.309 27.3987 597.906 28.052C598.522 28.7053 599.418 29.032 600.594 29.032C601.77 29.032 602.657 28.7053 603.254 28.052C603.87 27.3987 604.272 26.54 604.458 25.476C604.645 24.412 604.738 23.096 604.738 21.528ZM627.268 23.236H621.612V29.032H618.644V23.236H612.988V20.548H618.644V14.752H621.612V20.548H627.268V23.236ZM639.55 22.228C639.55 20.324 639.988 18.616 640.866 17.104C641.762 15.592 642.966 14.416 644.478 13.576C646.008 12.7173 647.679 12.288 649.49 12.288C651.562 12.288 653.4 12.8013 655.006 13.828C656.63 14.836 657.806 16.2733 658.534 18.14H654.698C654.194 17.1133 653.494 16.348 652.598 15.844C651.702 15.34 650.666 15.088 649.49 15.088C648.202 15.088 647.054 15.3773 646.046 15.956C645.038 16.5347 644.244 17.3653 643.666 18.448C643.106 19.5307 642.826 20.7907 642.826 22.228C642.826 23.6653 643.106 24.9253 643.666 26.008C644.244 27.0907 645.038 27.9307 646.046 28.528C647.054 29.1067 648.202 29.396 649.49 29.396C650.666 29.396 651.702 29.144 652.598 28.64C653.494 28.136 654.194 27.3707 654.698 26.344H658.534C657.806 28.2107 656.63 29.648 655.006 30.656C653.4 31.664 651.562 32.168 649.49 32.168C647.66 32.168 645.99 31.748 644.478 30.908C642.966 30.0493 641.762 28.864 640.866 27.352C639.988 25.84 639.55 24.132 639.55 22.228ZM669.522 32.252C668.066 32.252 666.75 31.9253 665.574 31.272C664.398 30.6 663.474 29.6667 662.802 28.472C662.13 27.2587 661.794 25.8587 661.794 24.272C661.794 22.704 662.139 21.3133 662.83 20.1C663.521 18.8867 664.463 17.9533 665.658 17.3C666.853 16.6467 668.187 16.32 669.662 16.32C671.137 16.32 672.471 16.6467 673.666 17.3C674.861 17.9533 675.803 18.8867 676.494 20.1C677.185 21.3133 677.53 22.704 677.53 24.272C677.53 25.84 677.175 27.2307 676.466 28.444C675.757 29.6573 674.786 30.6 673.554 31.272C672.341 31.9253 670.997 32.252 669.522 32.252ZM669.522 29.48C670.343 29.48 671.109 29.284 671.818 28.892C672.546 28.5 673.134 27.912 673.582 27.128C674.03 26.344 674.254 25.392 674.254 24.272C674.254 23.152 674.039 22.2093 673.61 21.444C673.181 20.66 672.611 20.072 671.902 19.68C671.193 19.288 670.427 19.092 669.606 19.092C668.785 19.092 668.019 19.288 667.31 19.68C666.619 20.072 666.069 20.66 665.658 21.444C665.247 22.2093 665.042 23.152 665.042 24.272C665.042 25.9333 665.462 27.2213 666.302 28.136C667.161 29.032 668.234 29.48 669.522 29.48ZM699.921 16.32C701.135 16.32 702.217 16.572 703.169 17.076C704.14 17.58 704.896 18.3267 705.437 19.316C705.997 20.3053 706.277 21.5 706.277 22.9V32H703.113V23.376C703.113 21.9947 702.768 20.94 702.077 20.212C701.387 19.4653 700.444 19.092 699.249 19.092C698.055 19.092 697.103 19.4653 696.393 20.212C695.703 20.94 695.357 21.9947 695.357 23.376V32H692.193V23.376C692.193 21.9947 691.848 20.94 691.157 20.212C690.467 19.4653 689.524 19.092 688.329 19.092C687.135 19.092 686.183 19.4653 685.473 20.212C684.783 20.94 684.437 21.9947 684.437 23.376V32H681.245V16.572H684.437V18.336C684.96 17.7013 685.623 17.2067 686.425 16.852C687.228 16.4973 688.087 16.32 689.001 16.32C690.233 16.32 691.335 16.5813 692.305 17.104C693.276 17.6267 694.023 18.3827 694.545 19.372C695.012 18.4387 695.74 17.7013 696.729 17.16C697.719 16.6 698.783 16.32 699.921 16.32ZM714.091 18.84C714.632 18.1307 715.37 17.5333 716.303 17.048C717.236 16.5627 718.291 16.32 719.467 16.32C720.811 16.32 722.034 16.656 723.135 17.328C724.255 17.9813 725.132 18.9053 725.767 20.1C726.402 21.2947 726.719 22.6667 726.719 24.216C726.719 25.7653 726.402 27.156 725.767 28.388C725.132 29.6013 724.255 30.5533 723.135 31.244C722.034 31.916 720.811 32.252 719.467 32.252C718.291 32.252 717.246 32.0187 716.331 31.552C715.416 31.0667 714.67 30.4693 714.091 29.76V39.336H710.899V16.572H714.091V18.84ZM723.471 24.216C723.471 23.152 723.247 22.2373 722.799 21.472C722.37 20.688 721.791 20.1 721.063 19.708C720.354 19.2973 719.588 19.092 718.767 19.092C717.964 19.092 717.199 19.2973 716.471 19.708C715.762 20.1187 715.183 20.716 714.735 21.5C714.306 22.284 714.091 23.208 714.091 24.272C714.091 25.336 714.306 26.2693 714.735 27.072C715.183 27.856 715.762 28.4533 716.471 28.864C717.199 29.2747 717.964 29.48 718.767 29.48C719.588 29.48 720.354 29.2747 721.063 28.864C721.791 28.4347 722.37 27.8187 722.799 27.016C723.247 26.2133 723.471 25.28 723.471 24.216ZM729.372 24.216C729.372 22.6667 729.689 21.2947 730.324 20.1C730.977 18.9053 731.854 17.9813 732.956 17.328C734.076 16.656 735.308 16.32 736.652 16.32C737.865 16.32 738.92 16.5627 739.816 17.048C740.73 17.5147 741.458 18.1027 742 18.812V16.572H745.22V32H742V29.704C741.458 30.432 740.721 31.0387 739.788 31.524C738.854 32.0093 737.79 32.252 736.596 32.252C735.27 32.252 734.057 31.916 732.956 31.244C731.854 30.5533 730.977 29.6013 730.324 28.388C729.689 27.156 729.372 25.7653 729.372 24.216ZM742 24.272C742 23.208 741.776 22.284 741.328 21.5C740.898 20.716 740.329 20.1187 739.62 19.708C738.91 19.2973 738.145 19.092 737.324 19.092C736.502 19.092 735.737 19.2973 735.028 19.708C734.318 20.1 733.74 20.688 733.292 21.472C732.862 22.2373 732.648 23.152 732.648 24.216C732.648 25.28 732.862 26.2133 733.292 27.016C733.74 27.8187 734.318 28.4347 735.028 28.864C735.756 29.2747 736.521 29.48 737.324 29.48C738.145 29.48 738.91 29.2747 739.62 28.864C740.329 28.4533 740.898 27.856 741.328 27.072C741.776 26.2693 742 25.336 742 24.272ZM757.756 16.32C758.97 16.32 760.052 16.572 761.004 17.076C761.975 17.58 762.731 18.3267 763.272 19.316C763.814 20.3053 764.084 21.5 764.084 22.9V32H760.92V23.376C760.92 21.9947 760.575 20.94 759.884 20.212C759.194 19.4653 758.251 19.092 757.056 19.092C755.862 19.092 754.91 19.4653 754.2 20.212C753.51 20.94 753.164 21.9947 753.164 23.376V32H749.972V16.572H753.164V18.336C753.687 17.7013 754.35 17.2067 755.152 16.852C755.974 16.4973 756.842 16.32 757.756 16.32ZM770.34 14.528C769.761 14.528 769.276 14.332 768.884 13.94C768.492 13.548 768.296 13.0627 768.296 12.484C768.296 11.9053 768.492 11.42 768.884 11.028C769.276 10.636 769.761 10.44 770.34 10.44C770.9 10.44 771.376 10.636 771.768 11.028C772.16 11.42 772.356 11.9053 772.356 12.484C772.356 13.0627 772.16 13.548 771.768 13.94C771.376 14.332 770.9 14.528 770.34 14.528ZM771.908 16.572V32H768.716V16.572H771.908ZM790.799 23.908C790.799 24.4867 790.761 25.0093 790.687 25.476H778.899C778.992 26.708 779.449 27.6973 780.271 28.444C781.092 29.1907 782.1 29.564 783.295 29.564C785.012 29.564 786.225 28.8453 786.935 27.408H790.379C789.912 28.8267 789.063 29.9933 787.831 30.908C786.617 31.804 785.105 32.252 783.295 32.252C781.82 32.252 780.495 31.9253 779.319 31.272C778.161 30.6 777.247 29.6667 776.575 28.472C775.921 27.2587 775.595 25.8587 775.595 24.272C775.595 22.6853 775.912 21.2947 776.547 20.1C777.2 18.8867 778.105 17.9533 779.263 17.3C780.439 16.6467 781.783 16.32 783.295 16.32C784.751 16.32 786.048 16.6373 787.187 17.272C788.325 17.9067 789.212 18.8027 789.847 19.96C790.481 21.0987 790.799 22.4147 790.799 23.908ZM787.467 22.9C787.448 21.724 787.028 20.7813 786.207 20.072C785.385 19.3627 784.368 19.008 783.155 19.008C782.053 19.008 781.111 19.3627 780.327 20.072C779.543 20.7627 779.076 21.7053 778.927 22.9H787.467ZM800.1 32.252C798.887 32.252 797.795 32.0373 796.824 31.608C795.872 31.16 795.116 30.5627 794.556 29.816C793.996 29.0507 793.697 28.2013 793.66 27.268H796.964C797.02 27.9213 797.328 28.472 797.888 28.92C798.467 29.3493 799.185 29.564 800.044 29.564C800.94 29.564 801.631 29.396 802.116 29.06C802.62 28.7053 802.872 28.2573 802.872 27.716C802.872 27.1373 802.592 26.708 802.032 26.428C801.491 26.148 800.623 25.84 799.428 25.504C798.271 25.1867 797.328 24.8787 796.6 24.58C795.872 24.2813 795.237 23.824 794.696 23.208C794.173 22.592 793.912 21.78 793.912 20.772C793.912 19.9507 794.155 19.204 794.64 18.532C795.125 17.8413 795.816 17.3 796.712 16.908C797.627 16.516 798.672 16.32 799.848 16.32C801.603 16.32 803.012 16.768 804.076 17.664C805.159 18.5413 805.737 19.7453 805.812 21.276H802.62C802.564 20.5853 802.284 20.0347 801.78 19.624C801.276 19.2133 800.595 19.008 799.736 19.008C798.896 19.008 798.252 19.1667 797.804 19.484C797.356 19.8013 797.132 20.2213 797.132 20.744C797.132 21.1547 797.281 21.5 797.58 21.78C797.879 22.06 798.243 22.284 798.672 22.452C799.101 22.6013 799.736 22.7973 800.576 23.04C801.696 23.3387 802.611 23.6467 803.32 23.964C804.048 24.2627 804.673 24.7107 805.196 25.308C805.719 25.9053 805.989 26.6987 806.008 27.688C806.008 28.5653 805.765 29.3493 805.28 30.04C804.795 30.7307 804.104 31.272 803.208 31.664C802.331 32.056 801.295 32.252 800.1 32.252ZM843.19 12.54L837.422 32H833.81L829.722 17.272L825.382 32L821.798 32.028L816.282 12.54H819.67L823.702 28.388L828.07 12.54H831.654L835.714 28.304L839.774 12.54H843.19ZM853.075 32.252C851.619 32.252 850.303 31.9253 849.127 31.272C847.951 30.6 847.027 29.6667 846.355 28.472C845.683 27.2587 845.347 25.8587 845.347 24.272C845.347 22.704 845.692 21.3133 846.383 20.1C847.074 18.8867 848.016 17.9533 849.211 17.3C850.406 16.6467 851.74 16.32 853.215 16.32C854.69 16.32 856.024 16.6467 857.219 17.3C858.414 17.9533 859.356 18.8867 860.047 20.1C860.738 21.3133 861.083 22.704 861.083 24.272C861.083 25.84 860.728 27.2307 860.019 28.444C859.31 29.6573 858.339 30.6 857.107 31.272C855.894 31.9253 854.55 32.252 853.075 32.252ZM853.075 29.48C853.896 29.48 854.662 29.284 855.371 28.892C856.099 28.5 856.687 27.912 857.135 27.128C857.583 26.344 857.807 25.392 857.807 24.272C857.807 23.152 857.592 22.2093 857.163 21.444C856.734 20.66 856.164 20.072 855.455 19.68C854.746 19.288 853.98 19.092 853.159 19.092C852.338 19.092 851.572 19.288 850.863 19.68C850.172 20.072 849.622 20.66 849.211 21.444C848.8 22.2093 848.595 23.152 848.595 24.272C848.595 25.9333 849.015 27.2213 849.855 28.136C850.714 29.032 851.787 29.48 853.075 29.48ZM867.99 18.812C868.457 18.028 869.073 17.4213 869.838 16.992C870.622 16.544 871.546 16.32 872.61 16.32V19.624H871.798C870.548 19.624 869.596 19.9413 868.942 20.576C868.308 21.2107 867.99 22.312 867.99 23.88V32H864.798V16.572H867.99V18.812ZM879.297 11.28V32H876.105V11.28H879.297ZM882.983 24.216C882.983 22.6667 883.301 21.2947 883.935 20.1C884.589 18.9053 885.466 17.9813 886.567 17.328C887.687 16.656 888.929 16.32 890.291 16.32C891.299 16.32 892.289 16.544 893.259 16.992C894.249 17.4213 895.033 18 895.611 18.728V11.28H898.831V32H895.611V29.676C895.089 30.4227 894.361 31.0387 893.427 31.524C892.513 32.0093 891.458 32.252 890.263 32.252C888.919 32.252 887.687 31.916 886.567 31.244C885.466 30.5533 884.589 29.6013 883.935 28.388C883.301 27.156 882.983 25.7653 882.983 24.216ZM895.611 24.272C895.611 23.208 895.387 22.284 894.939 21.5C894.51 20.716 893.941 20.1187 893.231 19.708C892.522 19.2973 891.757 19.092 890.935 19.092C890.114 19.092 889.349 19.2973 888.639 19.708C887.93 20.1 887.351 20.688 886.903 21.472C886.474 22.2373 886.259 23.152 886.259 24.216C886.259 25.28 886.474 26.2133 886.903 27.016C887.351 27.8187 887.93 28.4347 888.639 28.864C889.367 29.2747 890.133 29.48 890.935 29.48C891.757 29.48 892.522 29.2747 893.231 28.864C893.941 28.4533 894.51 27.856 894.939 27.072C895.387 26.2693 895.611 25.336 895.611 24.272ZM924.304 16.572L919.516 32H916.156L913.048 20.604L909.94 32H906.58L901.764 16.572H905.012L908.232 28.976L911.508 16.572H914.84L917.976 28.92L921.168 16.572H924.304ZM928.873 14.528C928.295 14.528 927.809 14.332 927.417 13.94C927.025 13.548 926.829 13.0627 926.829 12.484C926.829 11.9053 927.025 11.42 927.417 11.028C927.809 10.636 928.295 10.44 928.873 10.44C929.433 10.44 929.909 10.636 930.301 11.028C930.693 11.42 930.889 11.9053 930.889 12.484C930.889 13.0627 930.693 13.548 930.301 13.94C929.909 14.332 929.433 14.528 928.873 14.528ZM930.441 16.572V32H927.249V16.572H930.441ZM934.128 24.216C934.128 22.6667 934.445 21.2947 935.08 20.1C935.733 18.9053 936.611 17.9813 937.712 17.328C938.832 16.656 940.073 16.32 941.436 16.32C942.444 16.32 943.433 16.544 944.404 16.992C945.393 17.4213 946.177 18 946.756 18.728V11.28H949.976V32H946.756V29.676C946.233 30.4227 945.505 31.0387 944.572 31.524C943.657 32.0093 942.603 32.252 941.408 32.252C940.064 32.252 938.832 31.916 937.712 31.244C936.611 30.5533 935.733 29.6013 935.08 28.388C934.445 27.156 934.128 25.7653 934.128 24.216ZM946.756 24.272C946.756 23.208 946.532 22.284 946.084 21.5C945.655 20.716 945.085 20.1187 944.376 19.708C943.667 19.2973 942.901 19.092 942.08 19.092C941.259 19.092 940.493 19.2973 939.784 19.708C939.075 20.1 938.496 20.688 938.048 21.472C937.619 22.2373 937.404 23.152 937.404 24.216C937.404 25.28 937.619 26.2133 938.048 27.016C938.496 27.8187 939.075 28.4347 939.784 28.864C940.512 29.2747 941.277 29.48 942.08 29.48C942.901 29.48 943.667 29.2747 944.376 28.864C945.085 28.4533 945.655 27.856 946.084 27.072C946.532 26.2693 946.756 25.336 946.756 24.272ZM968.869 23.908C968.869 24.4867 968.831 25.0093 968.757 25.476H956.969C957.062 26.708 957.519 27.6973 958.341 28.444C959.162 29.1907 960.17 29.564 961.365 29.564C963.082 29.564 964.295 28.8453 965.005 27.408H968.449C967.982 28.8267 967.133 29.9933 965.901 30.908C964.687 31.804 963.175 32.252 961.365 32.252C959.89 32.252 958.565 31.9253 957.389 31.272C956.231 30.6 955.317 29.6667 954.645 28.472C953.991 27.2587 953.665 25.8587 953.665 24.272C953.665 22.6853 953.982 21.2947 954.617 20.1C955.27 18.8867 956.175 17.9533 957.333 17.3C958.509 16.6467 959.853 16.32 961.365 16.32C962.821 16.32 964.118 16.6373 965.257 17.272C966.395 17.9067 967.282 18.8027 967.917 19.96C968.551 21.0987 968.869 22.4147 968.869 23.908ZM965.537 22.9C965.518 21.724 965.098 20.7813 964.277 20.072C963.455 19.3627 962.438 19.008 961.225 19.008C960.123 19.008 959.181 19.3627 958.397 20.072C957.613 20.7627 957.146 21.7053 956.997 22.9H965.537Z" fill="#696984"/>
<g clip-path="url(#clip0_1_608)">
<path d="M20.7271 87.9258H22.2237C27.4197 88.0383 32.5309 90.119 36.2019 93.8024C34.8465 95.1801 33.4628 96.5017 32.1355 97.8794C30.0741 96.0237 27.5891 94.5897 24.8782 94.0836C20.8683 93.24 16.5477 93.9992 13.1873 96.2767C9.51626 98.6667 7.03124 102.716 6.49471 107.046C5.90169 111.32 7.11596 115.819 9.9116 119.136C12.5943 122.37 16.6889 124.394 20.9247 124.535C24.8782 124.76 29.001 123.551 31.8814 120.795C34.1405 118.855 35.1853 115.903 35.5242 113.035C30.8365 113.035 26.1489 113.063 21.4613 113.035V107.243H41.2002C42.2168 113.457 40.7484 120.458 36.0042 124.901C32.8415 128.05 28.4645 129.905 24.0028 130.271C19.6822 130.693 15.2205 129.877 11.38 127.797C6.7771 125.35 3.10605 121.217 1.29877 116.353C-0.395559 111.882 -0.423798 106.821 1.15757 102.322C2.59775 98.2168 5.36516 94.5897 8.92324 92.0591C12.3401 89.5566 16.4912 88.1788 20.7271 87.9258Z" fill="#CFCFDE"/>
<path d="M133.965 89.3867H140.008V129.539C138.003 129.539 135.97 129.567 133.965 129.511C133.993 116.155 133.965 102.771 133.965 89.3867Z" fill="#CFCFDE"/>
<path d="M54.6421 103.305C58.3696 102.602 62.4077 103.389 65.4858 105.611C68.2814 107.579 70.2299 110.672 70.8229 114.046C71.5853 117.954 70.6252 122.228 68.0837 125.321C65.3446 128.78 60.8546 130.635 56.4776 130.354C52.4677 130.129 48.5707 128.133 46.1987 124.871C43.516 121.272 42.8665 116.324 44.3349 112.106C45.8033 107.579 49.9544 104.121 54.6421 103.305ZM55.4892 108.647C53.9643 109.041 52.5524 109.913 51.5358 111.15C48.7966 114.412 48.9661 119.726 51.9876 122.763C53.7102 124.506 56.3081 125.321 58.7084 124.843C60.9393 124.45 62.8878 122.959 63.9609 120.991C65.8246 117.645 65.2881 113.034 62.436 110.419C60.6004 108.732 57.9178 108.029 55.4892 108.647Z" fill="#CFCFDE"/>
<path d="M84.5752 103.305C88.8392 102.49 93.4986 103.671 96.6896 106.651C101.886 111.291 102.45 119.979 98.0168 125.321C95.3342 128.695 90.9854 130.551 86.6931 130.354C82.5985 130.242 78.5603 128.217 76.1318 124.871C73.3926 121.188 72.7996 116.127 74.3527 111.825C75.9059 107.439 79.9723 104.092 84.5752 103.305ZM85.4223 108.648C83.8975 109.041 82.4855 109.913 81.4689 111.122C78.758 114.327 78.871 119.557 81.7795 122.622C83.5021 124.45 86.1848 125.349 88.6698 124.843C90.8724 124.422 92.8491 122.959 93.9222 120.991C95.7577 117.617 95.2212 113.006 92.3408 110.391C90.5053 108.704 87.8226 108.029 85.4223 108.648Z" fill="#CFCFDE"/>
<path d="M109.962 104.936C113.209 102.911 117.53 102.349 121.031 104.092C122.133 104.57 123.036 105.386 123.912 106.201C123.94 105.442 123.912 104.655 123.94 103.867C125.832 103.896 127.724 103.867 129.644 103.896V128.695C129.616 132.435 128.656 136.4 125.945 139.127C122.98 142.136 118.433 143.063 114.339 142.445C109.962 141.798 106.15 138.621 104.455 134.6C106.15 133.785 107.929 133.138 109.679 132.379C110.668 134.684 112.673 136.653 115.186 137.103C117.699 137.552 120.608 136.934 122.246 134.853C123.997 132.716 123.997 129.792 123.912 127.177C122.613 128.442 121.116 129.567 119.309 129.989C115.384 131.085 111.063 129.736 108.042 127.093C104.992 124.45 103.185 120.373 103.354 116.324C103.439 111.74 106.037 107.326 109.962 104.936ZM115.807 108.535C114.085 108.816 112.475 109.772 111.374 111.094C108.719 114.243 108.719 119.276 111.402 122.369C112.927 124.197 115.384 125.209 117.756 124.956C119.987 124.731 122.048 123.325 123.149 121.385C125.013 118.095 124.703 113.624 122.189 110.756C120.636 108.985 118.151 108.113 115.807 108.535Z" fill="#CFCFDE"/>
<path d="M147.265 106.37C150.654 103.221 155.878 102.152 160.227 103.811C164.35 105.358 166.976 109.266 168.303 113.287C162.175 115.817 156.076 118.32 149.948 120.851C150.795 122.453 152.094 123.915 153.845 124.506C156.302 125.377 159.239 125.068 161.3 123.437C162.119 122.819 162.768 122.003 163.39 121.216C164.943 122.256 166.496 123.269 168.049 124.309C165.847 127.599 162.147 129.904 158.166 130.27C153.76 130.804 149.073 129.117 146.221 125.687C141.533 120.288 141.985 111.234 147.265 106.37ZM150.287 111.572C149.327 112.949 148.931 114.637 148.96 116.295C153.054 114.608 157.149 112.921 161.244 111.206C160.566 109.632 158.928 108.676 157.262 108.422C154.579 107.944 151.784 109.378 150.287 111.572Z" fill="#CFCFDE"/>
</g>
<path d="M1310.46 93.833V77.9312H1313.71V91.6007C1312.81 92.0522 1311.58 92.905 1310.46 93.833ZM1304.82 98.6236C1305.82 97.4197 1306.84 96.2158 1308.06 95.1874V77.9312H1304.82V98.6236ZM1267.23 111.265C1267.23 115.504 1268.9 119.542 1271.97 122.627C1275.02 125.687 1279.04 127.392 1283.28 127.392C1285.08 127.392 1286.92 127.016 1288.22 126.364V123.103C1286.7 123.756 1284.85 124.132 1283.28 124.132C1276.34 124.132 1270.5 118.263 1270.5 111.29V108.355C1270.5 101.383 1276.37 95.5135 1283.28 95.5135C1286.72 95.5135 1289.94 96.8428 1292.34 99.2506C1294.74 101.658 1296.06 104.894 1296.06 108.355V127.417H1299.3V107.728C1299.1 103.565 1297.33 99.677 1294.34 96.7676C1291.32 93.8581 1287.4 92.2528 1283.28 92.2528C1279.06 92.2528 1275.04 93.9333 1271.97 97.0184C1268.93 100.078 1267.23 104.117 1267.23 108.38V111.265ZM1315.8 103.439C1317.27 101.959 1319.17 101.132 1321.04 101.132C1325.06 101.132 1328.18 104.292 1328.18 108.305V111.24C1328.18 115.278 1325.04 118.413 1321.04 118.413C1319.1 118.413 1317.22 117.335 1315.75 115.403C1314.45 113.698 1313.61 111.365 1313.48 109.283L1310.86 112.544C1311.38 115.002 1312.66 117.385 1314.48 119.04C1316.35 120.746 1318.7 121.699 1321.04 121.699C1326.78 121.699 1331.45 117.009 1331.45 111.265V108.33C1331.45 105.596 1330.35 102.988 1328.36 101.006C1326.36 98.9998 1323.76 97.8962 1321.04 97.8962C1319.32 97.8962 1316.6 98.5233 1313.36 101.458C1312.48 102.336 1310.44 104.392 1309.19 105.847C1307.09 108.155 1304.07 111.591 1301.48 115.077V120.169C1304.35 116.457 1305.99 114.375 1308.71 111.24C1311.11 108.38 1314.1 104.944 1315.8 103.439ZM1239.13 97.2943V93.4317C1236.18 91.8515 1232.99 91.1492 1228.75 91.1492C1224.4 91.1492 1220.28 92.7545 1217.16 95.6389C1214.02 98.5484 1212.3 102.361 1212.3 106.424V107.477C1212.3 115.905 1219.01 122.752 1227.3 122.752C1234.01 122.752 1236.78 120.545 1237.48 119.843V110.036H1226.5V113.296H1234.44V118.212H1234.41C1233.39 118.614 1231.27 119.467 1227.3 119.467C1224.15 119.467 1221.18 118.238 1218.99 115.98C1216.77 113.723 1215.57 110.713 1215.57 107.452V106.399C1215.57 99.9028 1221.61 94.3848 1228.77 94.3848C1233.69 94.4099 1236.63 95.2376 1239.13 97.2943ZM1262.79 101.132C1264.01 101.132 1265.06 101.332 1265.91 101.734C1266.31 100.73 1266.73 99.8777 1267.33 98.8744C1266.46 98.2474 1264.34 97.8461 1262.79 97.8461C1256.87 97.8461 1252.41 102.336 1252.41 108.305V127.367H1255.65V108.305C1255.65 104.091 1258.57 101.132 1262.79 101.132ZM1206.66 106.424V107.477C1206.66 113.146 1208.8 118.413 1212.67 122.351C1216.54 126.264 1221.73 128.421 1227.27 128.421C1231.74 128.421 1235.68 127.417 1239.03 125.411C1241.77 123.756 1243 122.1 1243.1 121.95V104.392H1226.5V107.653H1239.85V120.971C1238.28 122.552 1234.56 125.185 1227.3 125.185C1222.56 125.185 1218.16 123.354 1214.92 120.043C1211.7 116.758 1209.93 112.293 1209.93 107.503V106.449C1209.93 101.909 1211.95 97.3946 1215.49 94.0587C1219.11 90.6476 1223.83 88.7665 1228.77 88.7665C1233.39 88.7665 1236.58 89.4688 1239.15 91.0489V87.3619C1236.46 86.2081 1233.24 85.7065 1228.75 85.7065C1216.77 85.7065 1206.66 95.1874 1206.66 106.424ZM1293.64 127.367V108.305C1293.64 102.436 1289.07 97.8461 1283.23 97.8461C1280.51 97.8461 1277.91 98.9497 1275.92 100.956C1273.92 102.963 1272.82 105.571 1272.82 108.28V111.215C1272.82 116.883 1277.59 121.649 1283.21 121.649C1284.75 121.649 1286.85 121.272 1288.15 120.194V116.808C1286.87 117.836 1285.05 118.438 1283.21 118.438C1279.21 118.438 1276.07 115.278 1276.07 111.265V108.33C1276.07 104.292 1279.21 101.157 1283.21 101.157C1287.22 101.157 1290.34 104.317 1290.34 108.33V127.392H1293.64V127.367ZM1262.79 95.4633C1264.99 95.4633 1266.91 95.9399 1268.63 96.918C1269.43 95.8897 1270.25 95.0871 1270.88 94.46C1269.05 93.0555 1265.96 92.2027 1262.81 92.2027C1258.3 92.2027 1254.2 93.833 1251.28 96.8177C1248.39 99.7523 1246.79 103.841 1246.79 108.33V127.392H1250.04V108.33C1250.01 100.756 1255.25 95.4633 1262.79 95.4633ZM1332.35 96.9682C1329.3 93.9082 1325.29 92.2027 1321.04 92.2027C1317.95 92.2027 1314.85 93.3564 1313.13 94.5102C1309.59 96.8679 1306.69 99.4513 1301.45 106.248V111.139C1305.89 105.32 1310.09 100.756 1313.28 98.2223C1315.38 96.5418 1318.35 95.4884 1321.04 95.4884C1327.98 95.4884 1333.82 101.383 1333.82 108.33V111.265C1333.82 114.701 1332.47 117.937 1330.03 120.369C1327.61 122.777 1324.41 124.107 1321.04 124.107C1315.35 124.107 1310.34 120.169 1308.99 114.826L1306.69 117.61C1308.36 123.229 1314.4 127.367 1321.04 127.367C1325.29 127.367 1329.28 125.662 1332.35 122.602C1335.39 119.517 1337.09 115.504 1337.09 111.24V108.305C1337.09 104.066 1335.39 100.028 1332.35 96.9682Z" fill="#CFCFDE"/>
<g clip-path="url(#clip1_1_608)">
<path d="M556.136 100.466C556.136 102.265 554.674 103.715 552.86 103.715C551.046 103.715 549.586 102.265 549.586 100.466C549.586 98.6664 550.996 97.2173 552.86 97.2173C554.725 97.2673 556.136 98.7168 556.136 100.466ZM542.633 107.014V107.814C542.633 107.814 541.071 105.814 537.746 105.814C532.255 105.814 527.972 109.963 527.972 115.71C527.972 121.409 532.204 125.607 537.746 125.607C541.122 125.607 542.633 123.558 542.633 123.558V124.407C542.633 124.807 542.936 125.106 543.338 125.106H547.419V106.312H543.338C542.936 106.314 542.633 106.664 542.633 107.014ZM542.633 119.059C541.878 120.159 540.366 121.109 538.552 121.109C535.328 121.109 532.859 119.11 532.859 115.71C532.859 112.311 535.328 110.312 538.552 110.312C540.316 110.312 541.928 111.312 542.633 112.361V119.059ZM550.442 106.314H555.279V125.108H550.442V106.314ZM622.691 105.813C619.365 105.813 617.803 107.813 617.803 107.813V97.2673H612.967V125.108H617.048C617.451 125.108 617.753 124.758 617.753 124.407V123.558C617.753 123.558 619.315 125.607 622.64 125.607C628.132 125.607 632.414 121.41 632.414 115.712C632.414 110.013 628.132 105.813 622.691 105.813ZM621.885 121.059C620.02 121.059 618.559 120.11 617.803 119.009V112.311C618.559 111.312 620.171 110.262 621.885 110.262C625.109 110.262 627.578 112.261 627.578 115.66C627.578 119.059 625.109 121.059 621.885 121.059ZM610.448 113.962V125.157H605.611V114.511C605.611 111.413 604.603 110.162 601.884 110.162C600.424 110.162 598.912 110.912 597.953 112.012V125.108H593.117V106.314H596.945C597.348 106.314 597.651 106.664 597.651 107.014V107.814C599.062 106.364 600.925 105.814 602.789 105.814C604.906 105.814 606.669 106.414 608.08 107.614C609.792 109.013 610.448 110.812 610.448 113.962ZM581.377 105.813C578.052 105.813 576.49 107.813 576.49 107.813V97.2673H571.653V125.108H575.734C576.137 125.108 576.44 124.758 576.44 124.407V123.558C576.44 123.558 578.002 125.607 581.326 125.607C586.818 125.607 591.101 121.41 591.101 115.712C591.151 110.013 586.869 105.813 581.377 105.813ZM580.57 121.059C578.706 121.059 577.246 120.11 576.49 119.009V112.311C577.246 111.312 578.858 110.262 580.57 110.262C583.796 110.262 586.264 112.261 586.264 115.66C586.264 119.059 583.796 121.059 580.57 121.059ZM567.471 105.813C568.932 105.813 569.688 106.064 569.688 106.064V110.512C569.688 110.512 565.657 109.162 563.139 112.012V125.157H558.301V106.314H562.383C562.786 106.314 563.088 106.664 563.088 107.014V107.813C563.995 106.763 565.96 105.813 567.471 105.813ZM517.241 123.408C516.989 122.808 516.737 122.159 516.485 121.608C516.082 120.709 515.679 119.859 515.327 119.059L515.276 119.009C511.799 111.511 508.072 103.915 504.141 96.4179L503.99 96.1173C503.577 95.3396 503.174 94.5564 502.782 93.768C502.278 92.8677 501.774 91.919 500.968 91.0187C499.356 89.0194 497.038 87.9194 494.57 87.9194C492.05 87.9194 489.783 89.0194 488.121 90.9184C487.365 91.8177 486.811 92.7674 486.307 93.6677C485.914 94.4556 485.511 95.2387 485.099 96.017L484.947 96.3176C481.068 103.814 477.289 111.412 473.813 118.909L473.762 119.008C473.41 119.809 473.006 120.659 472.603 121.557C472.351 122.108 472.1 122.707 471.848 123.357C471.193 125.206 470.991 126.956 471.244 128.756C471.798 132.505 474.316 135.652 477.793 137.053C479.103 137.603 480.464 137.853 481.874 137.853C482.277 137.853 482.781 137.803 483.184 137.752C484.847 137.553 486.56 137.003 488.223 136.054C490.289 134.904 492.254 133.255 494.47 130.856C496.687 133.255 498.702 134.904 500.717 136.054C502.381 137.003 504.093 137.553 505.756 137.752C506.159 137.803 506.663 137.853 507.066 137.853C508.477 137.853 509.887 137.603 511.147 137.053C514.674 135.652 517.142 132.455 517.697 128.756C518.097 127.006 517.896 125.258 517.241 123.408ZM494.519 126.007C491.798 122.608 490.034 119.409 489.43 116.711C489.179 115.561 489.128 114.561 489.279 113.662C489.38 112.862 489.683 112.162 490.086 111.562C491.043 110.213 492.655 109.363 494.52 109.363C496.384 109.363 498.047 110.163 498.954 111.562C499.357 112.162 499.659 112.862 499.761 113.662C499.911 114.562 499.861 115.611 499.609 116.711C499.003 119.359 497.239 122.558 494.519 126.007ZM514.621 128.356C514.268 130.955 512.505 133.205 510.036 134.205C508.827 134.704 507.517 134.854 506.208 134.704C504.948 134.554 503.688 134.154 502.379 133.405C500.565 132.404 498.751 130.856 496.635 128.556C499.96 124.508 501.975 120.808 502.731 117.51C503.084 115.96 503.135 114.561 502.983 113.261C502.782 112.012 502.328 110.862 501.623 109.862C500.06 107.612 497.44 106.314 494.519 106.314C491.597 106.314 488.977 107.663 487.415 109.862C486.71 110.862 486.256 112.012 486.055 113.261C485.853 114.561 485.903 116.01 486.306 117.51C487.062 120.808 489.127 124.557 492.402 128.606C490.336 130.905 488.472 132.455 486.658 133.455C485.348 134.205 484.089 134.605 482.83 134.754C481.47 134.904 480.159 134.704 479.001 134.255C476.532 133.255 474.769 131.005 474.417 128.406C474.266 127.157 474.366 125.907 474.87 124.508C475.02 124.008 475.273 123.508 475.525 122.909C475.878 122.109 476.28 121.258 476.683 120.409L476.734 120.31C480.21 112.862 483.938 105.264 487.818 97.8675L487.969 97.5669C488.372 96.8179 488.776 96.018 489.178 95.268C489.581 94.4681 490.034 93.7181 490.589 93.068C491.647 91.8696 493.057 91.219 494.62 91.219C496.182 91.219 497.592 91.8696 498.65 93.068C499.205 93.7196 499.658 94.4696 500.061 95.268C500.465 96.018 500.868 96.8179 501.27 97.5669L501.422 97.8675C505.242 105.295 508.92 112.794 512.455 120.359V120.409C512.859 121.21 513.211 122.109 513.614 122.91C513.866 123.509 514.118 124.008 514.269 124.508C514.671 125.807 514.822 127.057 514.621 128.356Z" fill="#CFCFDE"/>
</g>
<g clip-path="url(#clip2_1_608)">
<path d="M387.28 116.521L395.376 137.814C392.99 137.475 390.606 137.051 388.178 136.669L383.617 124.904L378.931 135.698C376.631 135.316 374.372 135.189 372.072 134.892L380.294 116.268L372.836 97.1787H379.739L383.914 107.844L388.389 97.1787H395.375L387.28 116.521ZM367.386 97.1787H361.122V134.089C363.168 134.216 365.297 134.3 367.386 134.554V97.1787ZM355.711 133.665C350.003 133.284 344.293 132.947 338.456 132.819V97.1789H344.846V126.809C348.511 126.893 352.174 127.188 355.711 127.357V133.665ZM331.638 111.614V117.962H322.904V132.396H316.6V97.1787H334.494V103.527H322.905V111.614H331.639L331.638 111.614ZM305.861 103.527V132.735C303.73 132.735 301.559 132.735 299.47 132.819V103.527H292.866V97.1787H312.506V103.527H305.861ZM285.964 118.3C283.153 118.3 279.829 118.3 277.443 118.428V127.866C281.192 127.612 284.942 127.316 288.733 127.189V133.284L271.053 134.682V97.1787H288.732V103.527H277.443V112.078C279.915 112.078 283.706 111.951 285.964 111.951V118.301L285.964 118.3ZM250.557 114.744V136.924C248.258 137.179 246.212 137.475 244.04 137.814V97.1787H250.133L258.44 120.249V97.1787H264.832V135.189C262.574 135.571 260.272 135.698 257.844 136.036L250.557 114.744Z" fill="#CFCFDE"/>
</g>
<g clip-path="url(#clip3_1_608)">
<path fill-rule="evenodd" clip-rule="evenodd" d="M803.483 135.489C794.588 142.043 781.65 145.535 770.492 145.535C754.859 145.535 740.843 139.787 730.169 130.225C729.361 129.472 730.062 128.452 731.086 129.043C742.568 135.704 756.745 139.679 771.408 139.679C781.273 139.679 792.162 137.638 802.189 133.394C803.698 132.803 804.938 134.415 803.483 135.489Z" fill="#CFCFDE"/>
<path fill-rule="evenodd" clip-rule="evenodd" d="M807.202 131.245C806.07 129.795 799.655 130.547 796.798 130.923C795.936 131.031 795.774 130.278 796.583 129.741C801.704 126.142 810.059 127.216 811.03 128.398C812 129.58 810.76 137.961 805.962 141.936C805.208 142.527 804.507 142.204 804.83 141.399C805.908 138.713 808.334 132.75 807.202 131.245Z" fill="#CFCFDE"/>
<path fill-rule="evenodd" clip-rule="evenodd" d="M796.96 104.493V101.001C796.96 100.464 797.337 100.141 797.822 100.141H813.455C813.941 100.141 814.372 100.517 814.372 101.001V103.955C814.372 104.439 813.941 105.084 813.186 106.158L805.1 117.654C808.119 117.6 811.299 118.03 813.994 119.534C814.587 119.857 814.749 120.394 814.803 120.877V124.584C814.803 125.121 814.264 125.712 813.671 125.39C808.873 122.865 802.458 122.596 797.176 125.444C796.636 125.712 796.044 125.175 796.044 124.638V121.092C796.044 120.555 796.044 119.588 796.636 118.729L806.016 105.352H797.876C797.391 105.352 796.96 104.976 796.96 104.493ZM739.98 126.142H735.237C734.805 126.088 734.428 125.766 734.374 125.336V101.054C734.374 100.571 734.805 100.195 735.291 100.195H739.711C740.196 100.195 740.519 100.571 740.573 101.001V104.17H740.681C741.813 101.108 744.023 99.6578 746.934 99.6578C749.899 99.6578 751.786 101.108 753.08 104.17C754.212 101.108 756.853 99.6578 759.656 99.6578C761.651 99.6578 763.807 100.464 765.155 102.344C766.664 104.385 766.341 107.34 766.341 109.972V125.336C766.341 125.82 765.91 126.196 765.424 126.196H760.735C760.249 126.142 759.872 125.766 759.872 125.336V112.443C759.872 111.423 759.98 108.844 759.764 107.877C759.387 106.265 758.363 105.782 756.961 105.782C755.829 105.782 754.589 106.534 754.104 107.77C753.619 109.005 753.673 111.047 753.673 112.443V125.336C753.673 125.82 753.241 126.196 752.756 126.196H748.013C747.527 126.142 747.15 125.766 747.15 125.336V112.443C747.15 109.757 747.581 105.728 744.239 105.728C740.843 105.728 740.951 109.596 740.951 112.443V125.336C740.897 125.766 740.519 126.142 739.98 126.142ZM827.849 99.6578C834.91 99.6578 838.738 105.674 838.738 113.357C838.738 120.77 834.533 126.679 827.849 126.679C820.948 126.679 817.175 120.663 817.175 113.142C817.121 105.567 820.948 99.6578 827.849 99.6578ZM827.849 104.654C824.345 104.654 824.129 109.435 824.129 112.39C824.129 115.344 824.075 121.683 827.795 121.683C831.46 121.683 831.676 116.58 831.676 113.464C831.676 111.423 831.568 108.951 830.975 107.017C830.436 105.298 829.358 104.654 827.849 104.654ZM847.848 126.142H843.104C842.619 126.088 842.242 125.712 842.242 125.283V100.947C842.296 100.517 842.673 100.141 843.158 100.141H847.578C848.01 100.141 848.333 100.464 848.441 100.84V104.546H848.549C849.896 101.216 851.729 99.6578 855.018 99.6578C857.12 99.6578 859.222 100.41 860.57 102.505C861.81 104.439 861.81 107.716 861.81 110.08V125.39C861.756 125.82 861.379 126.142 860.893 126.142H856.15C855.718 126.088 855.341 125.766 855.287 125.39V112.175C855.287 109.489 855.611 105.621 852.322 105.621C851.19 105.621 850.112 106.373 849.573 107.555C848.926 109.059 848.818 110.509 848.818 112.175V125.283C848.764 125.766 848.333 126.142 847.848 126.142ZM784.507 114.538C784.507 116.365 784.561 117.923 783.645 119.588C782.89 120.931 781.704 121.737 780.357 121.737C778.524 121.737 777.446 120.34 777.446 118.299C777.446 114.27 781.057 113.518 784.507 113.518V114.538ZM789.305 126.088C788.982 126.357 788.55 126.411 788.173 126.196C786.61 124.906 786.286 124.262 785.424 123.026C782.836 125.659 780.95 126.464 777.607 126.464C773.618 126.464 770.492 123.993 770.492 119.105C770.492 115.237 772.594 112.658 775.559 111.369C778.146 110.241 781.758 110.026 784.507 109.704V109.113C784.507 107.984 784.615 106.641 783.914 105.674C783.321 104.815 782.243 104.439 781.273 104.439C779.44 104.439 777.823 105.352 777.446 107.286C777.338 107.716 777.068 108.146 776.637 108.146L772.055 107.662C771.678 107.555 771.246 107.286 771.354 106.695C772.432 101.108 777.446 99.4429 781.974 99.4429C784.292 99.4429 787.311 100.034 789.143 101.807C791.461 103.955 791.246 106.856 791.246 109.972V117.332C791.246 119.534 792.162 120.501 793.025 121.737C793.348 122.167 793.402 122.704 793.025 122.973C792 123.778 790.275 125.283 789.305 126.088ZM722.245 114.538C722.245 116.365 722.299 117.923 721.383 119.588C720.628 120.931 719.442 121.737 718.094 121.737C716.261 121.737 715.183 120.34 715.183 118.299C715.183 114.27 718.795 113.518 722.245 113.518V114.538ZM726.989 126.088C726.665 126.357 726.234 126.411 725.857 126.196C724.294 124.906 723.97 124.262 723.108 123.026C720.52 125.659 718.633 126.464 715.291 126.464C711.302 126.464 708.175 123.993 708.175 119.105C708.175 115.237 710.278 112.658 713.243 111.369C715.83 110.241 719.442 110.026 722.191 109.704V109.113C722.191 107.984 722.299 106.641 721.598 105.674C721.005 104.815 719.927 104.439 718.957 104.439C717.124 104.439 715.507 105.352 715.129 107.286C715.022 107.716 714.752 108.146 714.321 108.146L709.739 107.662C709.361 107.555 708.93 107.286 709.038 106.695C710.116 101.108 715.129 99.4429 719.658 99.4429C721.976 99.4429 724.994 100.034 726.827 101.807C729.145 103.955 728.929 106.856 728.929 109.972V117.332C728.929 119.534 729.846 120.501 730.708 121.737C731.032 122.167 731.086 122.704 730.708 122.973C729.684 123.778 727.959 125.283 726.989 126.088Z" fill="#CFCFDE"/>
</g>
<path d="M1037.1 107.343C1035.5 107.343 1034.35 107.869 1033.19 108.404V120.518C1034.3 120.625 1034.95 120.625 1036.01 120.625C1039.84 120.625 1040.36 118.863 1040.36 116.404V110.618C1040.36 108.802 1039.76 107.343 1037.1 107.343ZM1011.65 106.682C1008.99 106.682 1008.38 108.147 1008.38 109.962V110.981H1014.91V109.962C1014.91 108.147 1014.3 106.682 1011.65 106.682ZM962.344 119.291C962.344 120.726 963.019 121.472 964.508 121.472C966.105 121.472 967.051 120.949 968.218 120.412V117.538H964.724C963.07 117.538 962.344 117.847 962.344 119.291ZM1061.86 107.343C1059.2 107.343 1058.27 108.802 1058.27 110.618V117.246C1058.27 119.067 1059.2 120.53 1061.86 120.53C1064.52 120.53 1065.45 119.067 1065.45 117.246V110.618C1065.44 108.802 1064.52 107.343 1061.86 107.343ZM949.291 126.723H941.462V107.704H937.55V101.15H941.462V97.214C941.462 91.8668 943.67 88.688 949.946 88.688H955.171V95.2433H951.905C949.462 95.2433 949.301 96.1595 949.301 97.8688L949.291 101.149H955.207L954.515 107.703H949.291V126.723ZM976.049 126.772H969.523L969.241 125.116C966.262 126.772 963.603 127.041 961.849 127.041C957.063 127.041 954.516 123.832 954.516 119.395C954.516 114.16 957.488 112.292 962.806 112.292H968.218V111.16C968.218 108.488 967.912 107.704 963.818 107.704H957.123L957.777 101.15H965.095C974.079 101.15 976.049 103.998 976.049 111.213V126.772ZM998.239 108.184C994.178 107.485 993.012 107.332 991.058 107.332C987.549 107.332 986.488 108.109 986.488 111.1V116.758C986.488 119.749 987.549 120.529 991.058 120.529C993.012 120.529 994.178 120.373 998.239 119.672V126.064C994.682 126.865 992.365 127.075 990.406 127.075C982.001 127.075 978.66 122.639 978.66 116.23V111.639C978.66 105.224 982.001 100.78 990.406 100.78C992.365 100.78 994.682 100.991 998.239 101.795V108.184ZM1022.74 116.23H1008.38V116.758C1008.38 119.749 1009.44 120.529 1012.95 120.529C1016.11 120.529 1018.03 120.373 1022.08 119.672V126.064C1018.18 126.865 1016.14 127.075 1012.3 127.075C1003.9 127.075 1000.55 122.639 1000.55 116.23V110.98C1000.55 105.373 1003.03 100.78 1011.65 100.78C1020.26 100.78 1022.74 105.32 1022.74 110.98V116.23ZM1048.19 116.351C1048.19 122.545 1046.43 127.063 1035.74 127.063C1031.88 127.063 1029.62 126.723 1025.36 126.065V90.6569L1033.19 89.3464V101.732C1034.88 101.102 1037.07 100.781 1039.06 100.781C1046.89 100.781 1048.19 104.303 1048.19 109.963V116.351H1048.19ZM1073.28 116.486C1073.28 121.829 1071.08 127.012 1061.89 127.012C1052.68 127.012 1050.44 121.829 1050.44 116.486V111.326C1050.44 105.98 1052.68 100.796 1061.89 100.796C1071.08 100.796 1073.28 105.98 1073.28 111.326V116.486ZM1098.35 116.486C1098.35 121.829 1096.15 127.012 1086.96 127.012C1077.76 127.012 1075.52 121.829 1075.52 116.486V111.326C1075.52 105.98 1077.76 100.796 1086.96 100.796C1096.15 100.796 1098.35 105.98 1098.35 111.326V116.486ZM1124.08 126.723H1115.6L1108.42 114.702V126.723H1100.6V90.656L1108.42 89.3455V112.564L1115.6 101.15H1124.08L1116.25 113.606L1124.08 126.723ZM1086.93 107.343C1084.27 107.343 1083.35 108.802 1083.35 110.618V117.246C1083.35 119.067 1084.27 120.53 1086.93 120.53C1089.59 120.53 1090.53 119.067 1090.53 117.246V110.618C1090.53 108.802 1089.59 107.343 1086.93 107.343ZM1128.55 122.237C1129.87 122.237 1130.92 123.316 1130.92 124.663C1130.92 126.031 1129.87 127.098 1128.54 127.098C1127.22 127.098 1126.15 126.031 1126.15 124.663C1126.15 123.316 1127.22 122.237 1128.54 122.237H1128.55ZM1128.54 122.614C1127.48 122.614 1126.61 123.531 1126.61 124.663C1126.61 125.816 1127.48 126.721 1128.55 126.721C1129.62 126.732 1130.48 125.816 1130.48 124.674C1130.48 123.532 1129.62 122.614 1128.55 122.614H1128.54ZM1128.09 126.075H1127.66V123.368C1127.89 123.336 1128.1 123.305 1128.43 123.305C1128.83 123.305 1129.1 123.391 1129.26 123.509C1129.42 123.628 1129.51 123.811 1129.51 124.069C1129.51 124.426 1129.27 124.641 1128.98 124.728V124.748C1129.22 124.792 1129.38 125.006 1129.43 125.404C1129.5 125.825 1129.56 125.986 1129.6 126.074H1129.15C1129.09 125.986 1129.02 125.739 1128.97 125.383C1128.91 125.039 1128.73 124.909 1128.39 124.909H1128.09V126.075H1128.09ZM1128.09 124.577H1128.4C1128.76 124.577 1129.06 124.447 1129.06 124.112C1129.06 123.874 1128.89 123.638 1128.4 123.638C1128.26 123.638 1128.17 123.649 1128.09 123.659V124.577Z" fill="#CFCFDE"/>
<defs>
<clipPath id="clip0_1_608">
<rect width="168.303" height="54.6985" fill="white" transform="translate(0 87.9199)"/>
</clipPath>
<clipPath id="clip1_1_608">
<rect width="161.323" height="49.9333" fill="white" transform="translate(471.113 87.9199)"/>
</clipPath>
<clipPath id="clip2_1_608">
<rect width="151.336" height="40.7149" fill="white" transform="translate(244.04 97.1382)"/>
</clipPath>
<clipPath id="clip3_1_608">
<rect width="153.641" height="46.0923" fill="white" transform="matrix(-1 0 0 -1 861.813 145.535)"/>
</clipPath>
</defs>
</svg>
