<svg width="1920" height="593" viewBox="0 0 1920 593" fill="none" xmlns="http://www.w3.org/2000/svg">
<rect width="1920" height="593" fill="#252641"/>
<path d="M790.126 528.512C791.607 528.512 792.927 528.849 794.086 529.524C795.244 530.184 796.139 531.108 796.77 532.296C797.415 533.469 797.738 534.811 797.738 536.322C797.738 537.833 797.415 539.182 796.77 540.37C796.139 541.543 795.244 542.467 794.086 543.142C792.927 543.802 791.607 544.132 790.126 544.132C788.63 544.132 787.302 543.802 786.144 543.142C784.985 542.467 784.083 541.543 783.438 540.37C782.792 539.182 782.47 537.833 782.47 536.322C782.47 534.811 782.792 533.469 783.438 532.296C784.083 531.108 784.985 530.184 786.144 529.524C787.302 528.849 788.63 528.512 790.126 528.512ZM790.126 529.392C788.762 529.392 787.574 529.685 786.562 530.272C785.55 530.844 784.772 531.651 784.23 532.692C783.687 533.733 783.416 534.943 783.416 536.322C783.416 537.686 783.687 538.896 784.23 539.952C784.772 540.993 785.55 541.807 786.562 542.394C787.574 542.981 788.762 543.274 790.126 543.274C791.475 543.274 792.648 542.981 793.646 542.394C794.658 541.807 795.435 540.993 795.978 539.952C796.52 538.896 796.792 537.686 796.792 536.322C796.792 534.943 796.52 533.733 795.978 532.692C795.435 531.651 794.658 530.844 793.646 530.272C792.648 529.685 791.475 529.392 790.126 529.392ZM790.082 531.218C789.202 531.218 788.395 531.423 787.662 531.834C786.943 532.245 786.371 532.839 785.946 533.616C785.52 534.379 785.308 535.273 785.308 536.3C785.308 537.327 785.52 538.229 785.946 539.006C786.371 539.769 786.943 540.363 787.662 540.788C788.395 541.199 789.202 541.404 790.082 541.404C791.182 541.404 792.135 541.111 792.942 540.524C793.748 539.923 794.298 539.123 794.592 538.126H792.744C792.304 539.343 791.416 539.952 790.082 539.952C789.202 539.952 788.483 539.637 787.926 539.006C787.368 538.375 787.09 537.481 787.09 536.322C787.09 535.149 787.368 534.247 787.926 533.616C788.483 532.985 789.202 532.67 790.082 532.67C790.727 532.67 791.284 532.831 791.754 533.154C792.223 533.462 792.553 533.909 792.744 534.496H794.592C794.313 533.455 793.77 532.648 792.964 532.076C792.157 531.504 791.196 531.218 790.082 531.218ZM807.563 542.394C809.426 540.898 810.885 539.673 811.941 538.72C812.997 537.752 813.884 536.747 814.603 535.706C815.336 534.65 815.703 533.616 815.703 532.604C815.703 531.651 815.468 530.903 814.999 530.36C814.544 529.803 813.804 529.524 812.777 529.524C811.78 529.524 811.002 529.839 810.445 530.47C809.902 531.086 809.609 531.915 809.565 532.956H807.629C807.688 531.313 808.186 530.045 809.125 529.15C810.064 528.255 811.274 527.808 812.755 527.808C814.266 527.808 815.461 528.226 816.341 529.062C817.236 529.898 817.683 531.049 817.683 532.516C817.683 533.733 817.316 534.921 816.583 536.08C815.864 537.224 815.043 538.236 814.119 539.116C813.195 539.981 812.014 540.993 810.577 542.152H818.145V543.824H807.563V542.394ZM821.339 535.882C821.339 533.359 821.75 531.394 822.571 529.986C823.392 528.563 824.83 527.852 826.883 527.852C828.922 527.852 830.352 528.563 831.173 529.986C831.994 531.394 832.405 533.359 832.405 535.882C832.405 538.449 831.994 540.443 831.173 541.866C830.352 543.289 828.922 544 826.883 544C824.83 544 823.392 543.289 822.571 541.866C821.75 540.443 821.339 538.449 821.339 535.882ZM830.425 535.882C830.425 534.606 830.337 533.528 830.161 532.648C830 531.753 829.655 531.035 829.127 530.492C828.614 529.949 827.866 529.678 826.883 529.678C825.886 529.678 825.123 529.949 824.595 530.492C824.082 531.035 823.737 531.753 823.561 532.648C823.4 533.528 823.319 534.606 823.319 535.882C823.319 537.202 823.4 538.309 823.561 539.204C823.737 540.099 824.082 540.817 824.595 541.36C825.123 541.903 825.886 542.174 826.883 542.174C827.866 542.174 828.614 541.903 829.127 541.36C829.655 540.817 830 540.099 830.161 539.204C830.337 538.309 830.425 537.202 830.425 535.882ZM835.792 542.394C837.654 540.898 839.114 539.673 840.17 538.72C841.226 537.752 842.113 536.747 842.832 535.706C843.565 534.65 843.932 533.616 843.932 532.604C843.932 531.651 843.697 530.903 843.228 530.36C842.773 529.803 842.032 529.524 841.006 529.524C840.008 529.524 839.231 529.839 838.674 530.47C838.131 531.086 837.838 531.915 837.794 532.956H835.858C835.916 531.313 836.415 530.045 837.354 529.15C838.292 528.255 839.502 527.808 840.984 527.808C842.494 527.808 843.69 528.226 844.57 529.062C845.464 529.898 845.912 531.049 845.912 532.516C845.912 533.733 845.545 534.921 844.812 536.08C844.093 537.224 843.272 538.236 842.348 539.116C841.424 539.981 840.243 540.993 838.806 542.152H846.374V543.824H835.792V542.394ZM849.04 529.92V528.094H853.176V544H851.152V529.92H849.04ZM863.822 536.322C863.822 534.826 864.159 533.484 864.834 532.296C865.509 531.093 866.425 530.155 867.584 529.48C868.757 528.805 870.055 528.468 871.478 528.468C873.15 528.468 874.609 528.871 875.856 529.678C877.103 530.485 878.012 531.629 878.584 533.11H876.186C875.761 532.186 875.145 531.475 874.338 530.976C873.546 530.477 872.593 530.228 871.478 530.228C870.407 530.228 869.447 530.477 868.596 530.976C867.745 531.475 867.078 532.186 866.594 533.11C866.11 534.019 865.868 535.09 865.868 536.322C865.868 537.539 866.11 538.61 866.594 539.534C867.078 540.443 867.745 541.147 868.596 541.646C869.447 542.145 870.407 542.394 871.478 542.394C872.593 542.394 873.546 542.152 874.338 541.668C875.145 541.169 875.761 540.458 876.186 539.534H878.584C878.012 541.001 877.103 542.137 875.856 542.944C874.609 543.736 873.15 544.132 871.478 544.132C870.055 544.132 868.757 543.802 867.584 543.142C866.425 542.467 865.509 541.536 864.834 540.348C864.159 539.16 863.822 537.818 863.822 536.322ZM884.446 527.72V544H882.444V527.72H884.446ZM887.99 537.928C887.99 536.696 888.24 535.618 888.738 534.694C889.237 533.755 889.919 533.029 890.784 532.516C891.664 532.003 892.64 531.746 893.71 531.746C894.766 531.746 895.683 531.973 896.46 532.428C897.238 532.883 897.817 533.455 898.198 534.144V531.944H900.222V544H898.198V541.756C897.802 542.46 897.208 543.047 896.416 543.516C895.639 543.971 894.73 544.198 893.688 544.198C892.618 544.198 891.65 543.934 890.784 543.406C889.919 542.878 889.237 542.137 888.738 541.184C888.24 540.231 887.99 539.145 887.99 537.928ZM898.198 537.95C898.198 537.041 898.015 536.249 897.648 535.574C897.282 534.899 896.783 534.386 896.152 534.034C895.536 533.667 894.854 533.484 894.106 533.484C893.358 533.484 892.676 533.66 892.06 534.012C891.444 534.364 890.953 534.877 890.586 535.552C890.22 536.227 890.036 537.019 890.036 537.928C890.036 538.852 890.22 539.659 890.586 540.348C890.953 541.023 891.444 541.543 892.06 541.91C892.676 542.262 893.358 542.438 894.106 542.438C894.854 542.438 895.536 542.262 896.152 541.91C896.783 541.543 897.282 541.023 897.648 540.348C898.015 539.659 898.198 538.859 898.198 537.95ZM908.753 544.198C907.829 544.198 907.001 544.044 906.267 543.736C905.534 543.413 904.955 542.973 904.529 542.416C904.104 541.844 903.869 541.191 903.825 540.458H905.893C905.952 541.059 906.231 541.551 906.729 541.932C907.243 542.313 907.91 542.504 908.731 542.504C909.494 542.504 910.095 542.335 910.535 541.998C910.975 541.661 911.195 541.235 911.195 540.722C911.195 540.194 910.961 539.805 910.491 539.556C910.022 539.292 909.296 539.035 908.313 538.786C907.419 538.551 906.685 538.317 906.113 538.082C905.556 537.833 905.072 537.473 904.661 537.004C904.265 536.52 904.067 535.889 904.067 535.112C904.067 534.496 904.251 533.931 904.617 533.418C904.984 532.905 905.505 532.501 906.179 532.208C906.854 531.9 907.624 531.746 908.489 531.746C909.824 531.746 910.902 532.083 911.723 532.758C912.545 533.433 912.985 534.357 913.043 535.53H911.041C910.997 534.899 910.741 534.393 910.271 534.012C909.817 533.631 909.201 533.44 908.423 533.44C907.705 533.44 907.133 533.594 906.707 533.902C906.282 534.21 906.069 534.613 906.069 535.112C906.069 535.508 906.194 535.838 906.443 536.102C906.707 536.351 907.03 536.557 907.411 536.718C907.807 536.865 908.35 537.033 909.039 537.224C909.905 537.459 910.609 537.693 911.151 537.928C911.694 538.148 912.156 538.485 912.537 538.94C912.933 539.395 913.139 539.989 913.153 540.722C913.153 541.382 912.97 541.976 912.603 542.504C912.237 543.032 911.716 543.45 911.041 543.758C910.381 544.051 909.619 544.198 908.753 544.198ZM921.128 544.198C920.204 544.198 919.375 544.044 918.642 543.736C917.908 543.413 917.329 542.973 916.904 542.416C916.478 541.844 916.244 541.191 916.2 540.458H918.268C918.326 541.059 918.605 541.551 919.104 541.932C919.617 542.313 920.284 542.504 921.106 542.504C921.868 542.504 922.47 542.335 922.91 541.998C923.35 541.661 923.57 541.235 923.57 540.722C923.57 540.194 923.335 539.805 922.866 539.556C922.396 539.292 921.67 539.035 920.688 538.786C919.793 538.551 919.06 538.317 918.488 538.082C917.93 537.833 917.446 537.473 917.036 537.004C916.64 536.52 916.442 535.889 916.442 535.112C916.442 534.496 916.625 533.931 916.992 533.418C917.358 532.905 917.879 532.501 918.554 532.208C919.228 531.9 919.998 531.746 920.864 531.746C922.198 531.746 923.276 532.083 924.098 532.758C924.919 533.433 925.359 534.357 925.418 535.53H923.416C923.372 534.899 923.115 534.393 922.646 534.012C922.191 533.631 921.575 533.44 920.798 533.44C920.079 533.44 919.507 533.594 919.082 533.902C918.656 534.21 918.444 534.613 918.444 535.112C918.444 535.508 918.568 535.838 918.818 536.102C919.082 536.351 919.404 536.557 919.786 536.718C920.182 536.865 920.724 537.033 921.414 537.224C922.279 537.459 922.983 537.693 923.526 537.928C924.068 538.148 924.53 538.485 924.912 538.94C925.308 539.395 925.513 539.989 925.528 540.722C925.528 541.382 925.344 541.976 924.978 542.504C924.611 543.032 924.09 543.45 923.416 543.758C922.756 544.051 921.993 544.198 921.128 544.198ZM945.417 528.666V530.294H941.237V544H939.235V530.294H935.033V528.666H945.417ZM959.761 537.51C959.761 537.891 959.739 538.295 959.695 538.72H950.059C950.133 539.908 950.536 540.839 951.269 541.514C952.017 542.174 952.919 542.504 953.975 542.504C954.841 542.504 955.559 542.306 956.131 541.91C956.718 541.499 957.129 540.957 957.363 540.282H959.519C959.197 541.441 958.551 542.387 957.583 543.12C956.615 543.839 955.413 544.198 953.975 544.198C952.831 544.198 951.805 543.941 950.895 543.428C950.001 542.915 949.297 542.189 948.783 541.25C948.27 540.297 948.013 539.197 948.013 537.95C948.013 536.703 948.263 535.611 948.761 534.672C949.26 533.733 949.957 533.015 950.851 532.516C951.761 532.003 952.802 531.746 953.975 531.746C955.119 531.746 956.131 531.995 957.011 532.494C957.891 532.993 958.566 533.682 959.035 534.562C959.519 535.427 959.761 536.41 959.761 537.51ZM957.693 537.092C957.693 536.329 957.525 535.677 957.187 535.134C956.85 534.577 956.388 534.159 955.801 533.88C955.229 533.587 954.591 533.44 953.887 533.44C952.875 533.44 952.01 533.763 951.291 534.408C950.587 535.053 950.184 535.948 950.081 537.092H957.693ZM962.536 537.95C962.536 536.703 962.785 535.618 963.284 534.694C963.783 533.755 964.472 533.029 965.352 532.516C966.247 532.003 967.266 531.746 968.41 531.746C969.891 531.746 971.109 532.105 972.062 532.824C973.03 533.543 973.668 534.54 973.976 535.816H971.82C971.615 535.083 971.211 534.503 970.61 534.078C970.023 533.653 969.29 533.44 968.41 533.44C967.266 533.44 966.342 533.836 965.638 534.628C964.934 535.405 964.582 536.513 964.582 537.95C964.582 539.402 964.934 540.524 965.638 541.316C966.342 542.108 967.266 542.504 968.41 542.504C969.29 542.504 970.023 542.299 970.61 541.888C971.197 541.477 971.6 540.891 971.82 540.128H973.976C973.653 541.36 973.008 542.35 972.04 543.098C971.072 543.831 969.862 544.198 968.41 544.198C967.266 544.198 966.247 543.941 965.352 543.428C964.472 542.915 963.783 542.189 963.284 541.25C962.785 540.311 962.536 539.211 962.536 537.95ZM983.511 531.724C984.42 531.724 985.242 531.922 985.975 532.318C986.708 532.699 987.28 533.279 987.691 534.056C988.116 534.833 988.329 535.779 988.329 536.894V544H986.349V537.18C986.349 535.977 986.048 535.061 985.447 534.43C984.846 533.785 984.024 533.462 982.983 533.462C981.927 533.462 981.084 533.792 980.453 534.452C979.837 535.112 979.529 536.073 979.529 537.334V544H977.527V527.72H979.529V533.66C979.925 533.044 980.468 532.567 981.157 532.23C981.861 531.893 982.646 531.724 983.511 531.724ZM998.353 531.724C999.82 531.724 1001.01 532.171 1001.92 533.066C1002.83 533.946 1003.28 535.222 1003.28 536.894V544H1001.3V537.18C1001.3 535.977 1001 535.061 1000.4 534.43C999.798 533.785 998.977 533.462 997.935 533.462C996.879 533.462 996.036 533.792 995.405 534.452C994.789 535.112 994.481 536.073 994.481 537.334V544H992.479V531.944H994.481V533.66C994.877 533.044 995.413 532.567 996.087 532.23C996.777 531.893 997.532 531.724 998.353 531.724ZM1012.69 544.198C1011.56 544.198 1010.53 543.941 1009.61 543.428C1008.7 542.915 1007.98 542.189 1007.45 541.25C1006.94 540.297 1006.68 539.197 1006.68 537.95C1006.68 536.718 1006.95 535.633 1007.48 534.694C1008.02 533.741 1008.75 533.015 1009.68 532.516C1010.6 532.003 1011.63 531.746 1012.78 531.746C1013.92 531.746 1014.96 532.003 1015.88 532.516C1016.8 533.015 1017.53 533.733 1018.06 534.672C1018.6 535.611 1018.87 536.703 1018.87 537.95C1018.87 539.197 1018.59 540.297 1018.04 541.25C1017.49 542.189 1016.75 542.915 1015.81 543.428C1014.87 543.941 1013.83 544.198 1012.69 544.198ZM1012.69 542.438C1013.41 542.438 1014.08 542.269 1014.71 541.932C1015.34 541.595 1015.85 541.089 1016.23 540.414C1016.63 539.739 1016.83 538.918 1016.83 537.95C1016.83 536.982 1016.63 536.161 1016.25 535.486C1015.87 534.811 1015.37 534.313 1014.76 533.99C1014.14 533.653 1013.47 533.484 1012.76 533.484C1012.02 533.484 1011.35 533.653 1010.73 533.99C1010.13 534.313 1009.65 534.811 1009.28 535.486C1008.91 536.161 1008.73 536.982 1008.73 537.95C1008.73 538.933 1008.91 539.761 1009.26 540.436C1009.62 541.111 1010.11 541.617 1010.71 541.954C1011.31 542.277 1011.97 542.438 1012.69 542.438ZM1024.39 527.72V544H1022.38V527.72H1024.39ZM1033.94 544.198C1032.81 544.198 1031.78 543.941 1030.86 543.428C1029.95 542.915 1029.23 542.189 1028.7 541.25C1028.19 540.297 1027.93 539.197 1027.93 537.95C1027.93 536.718 1028.19 535.633 1028.72 534.694C1029.26 533.741 1030 533.015 1030.92 532.516C1031.85 532.003 1032.88 531.746 1034.02 531.746C1035.17 531.746 1036.2 532.003 1037.13 532.516C1038.05 533.015 1038.78 533.733 1039.3 534.672C1039.85 535.611 1040.12 536.703 1040.12 537.95C1040.12 539.197 1039.84 540.297 1039.28 541.25C1038.74 542.189 1038 542.915 1037.06 543.428C1036.12 543.941 1035.08 544.198 1033.94 544.198ZM1033.94 542.438C1034.65 542.438 1035.33 542.269 1035.96 541.932C1036.59 541.595 1037.1 541.089 1037.48 540.414C1037.87 539.739 1038.07 538.918 1038.07 537.95C1038.07 536.982 1037.88 536.161 1037.5 535.486C1037.12 534.811 1036.62 534.313 1036 533.99C1035.39 533.653 1034.72 533.484 1034 533.484C1033.27 533.484 1032.59 533.653 1031.98 533.99C1031.38 534.313 1030.89 534.811 1030.53 535.486C1030.16 536.161 1029.98 536.982 1029.98 537.95C1029.98 538.933 1030.15 539.761 1030.5 540.436C1030.87 541.111 1031.35 541.617 1031.96 541.954C1032.56 542.277 1033.22 542.438 1033.94 542.438ZM1048.6 531.746C1049.64 531.746 1050.55 531.973 1051.33 532.428C1052.12 532.883 1052.71 533.455 1053.09 534.144V531.944H1055.11V544.264C1055.11 545.364 1054.88 546.339 1054.41 547.19C1053.94 548.055 1053.27 548.73 1052.39 549.214C1051.52 549.698 1050.51 549.94 1049.35 549.94C1047.77 549.94 1046.45 549.566 1045.39 548.818C1044.33 548.07 1043.71 547.051 1043.52 545.76H1045.5C1045.72 546.493 1046.17 547.08 1046.86 547.52C1047.55 547.975 1048.38 548.202 1049.35 548.202C1050.45 548.202 1051.34 547.857 1052.03 547.168C1052.74 546.479 1053.09 545.511 1053.09 544.264V541.734C1052.69 542.438 1052.11 543.025 1051.33 543.494C1050.55 543.963 1049.64 544.198 1048.6 544.198C1047.53 544.198 1046.56 543.934 1045.68 543.406C1044.81 542.878 1044.13 542.137 1043.63 541.184C1043.13 540.231 1042.88 539.145 1042.88 537.928C1042.88 536.696 1043.13 535.618 1043.63 534.694C1044.13 533.755 1044.81 533.029 1045.68 532.516C1046.56 532.003 1047.53 531.746 1048.6 531.746ZM1053.09 537.95C1053.09 537.041 1052.91 536.249 1052.54 535.574C1052.17 534.899 1051.67 534.386 1051.04 534.034C1050.43 533.667 1049.75 533.484 1049 533.484C1048.25 533.484 1047.57 533.66 1046.95 534.012C1046.34 534.364 1045.84 534.877 1045.48 535.552C1045.11 536.227 1044.93 537.019 1044.93 537.928C1044.93 538.852 1045.11 539.659 1045.48 540.348C1045.84 541.023 1046.34 541.543 1046.95 541.91C1047.57 542.262 1048.25 542.438 1049 542.438C1049.75 542.438 1050.43 542.262 1051.04 541.91C1051.67 541.543 1052.17 541.023 1052.54 540.348C1052.91 539.659 1053.09 538.859 1053.09 537.95ZM1060.41 529.986C1060.03 529.986 1059.71 529.854 1059.44 529.59C1059.18 529.326 1059.05 529.003 1059.05 528.622C1059.05 528.241 1059.18 527.918 1059.44 527.654C1059.71 527.39 1060.03 527.258 1060.41 527.258C1060.78 527.258 1061.09 527.39 1061.34 527.654C1061.6 527.918 1061.73 528.241 1061.73 528.622C1061.73 529.003 1061.6 529.326 1061.34 529.59C1061.09 529.854 1060.78 529.986 1060.41 529.986ZM1061.38 531.944V544H1059.38V531.944H1061.38ZM1076.67 537.51C1076.67 537.891 1076.65 538.295 1076.61 538.72H1066.97C1067.04 539.908 1067.45 540.839 1068.18 541.514C1068.93 542.174 1069.83 542.504 1070.89 542.504C1071.75 542.504 1072.47 542.306 1073.04 541.91C1073.63 541.499 1074.04 540.957 1074.27 540.282H1076.43C1076.11 541.441 1075.46 542.387 1074.49 543.12C1073.53 543.839 1072.32 544.198 1070.89 544.198C1069.74 544.198 1068.71 543.941 1067.81 543.428C1066.91 542.915 1066.21 542.189 1065.69 541.25C1065.18 540.297 1064.92 539.197 1064.92 537.95C1064.92 536.703 1065.17 535.611 1065.67 534.672C1066.17 533.733 1066.87 533.015 1067.76 532.516C1068.67 532.003 1069.71 531.746 1070.89 531.746C1072.03 531.746 1073.04 531.995 1073.92 532.494C1074.8 532.993 1075.48 533.682 1075.95 534.562C1076.43 535.427 1076.67 536.41 1076.67 537.51ZM1074.6 537.092C1074.6 536.329 1074.43 535.677 1074.1 535.134C1073.76 534.577 1073.3 534.159 1072.71 533.88C1072.14 533.587 1071.5 533.44 1070.8 533.44C1069.79 533.44 1068.92 533.763 1068.2 534.408C1067.5 535.053 1067.09 535.948 1066.99 537.092H1074.6ZM1084.46 544.198C1083.54 544.198 1082.71 544.044 1081.98 543.736C1081.24 543.413 1080.66 542.973 1080.24 542.416C1079.81 541.844 1079.58 541.191 1079.53 540.458H1081.6C1081.66 541.059 1081.94 541.551 1082.44 541.932C1082.95 542.313 1083.62 542.504 1084.44 542.504C1085.2 542.504 1085.8 542.335 1086.24 541.998C1086.68 541.661 1086.9 541.235 1086.9 540.722C1086.9 540.194 1086.67 539.805 1086.2 539.556C1085.73 539.292 1085 539.035 1084.02 538.786C1083.13 538.551 1082.39 538.317 1081.82 538.082C1081.26 537.833 1080.78 537.473 1080.37 537.004C1079.97 536.52 1079.78 535.889 1079.78 535.112C1079.78 534.496 1079.96 533.931 1080.33 533.418C1080.69 532.905 1081.21 532.501 1081.89 532.208C1082.56 531.9 1083.33 531.746 1084.2 531.746C1085.53 531.746 1086.61 532.083 1087.43 532.758C1088.25 533.433 1088.69 534.357 1088.75 535.53H1086.75C1086.71 534.899 1086.45 534.393 1085.98 534.012C1085.53 533.631 1084.91 533.44 1084.13 533.44C1083.41 533.44 1082.84 533.594 1082.42 533.902C1081.99 534.21 1081.78 534.613 1081.78 535.112C1081.78 535.508 1081.9 535.838 1082.15 536.102C1082.42 536.351 1082.74 536.557 1083.12 536.718C1083.52 536.865 1084.06 537.033 1084.75 537.224C1085.61 537.459 1086.32 537.693 1086.86 537.928C1087.4 538.148 1087.86 538.485 1088.25 538.94C1088.64 539.395 1088.85 539.989 1088.86 540.722C1088.86 541.382 1088.68 541.976 1088.31 542.504C1087.95 543.032 1087.42 543.45 1086.75 543.758C1086.09 544.051 1085.33 544.198 1084.46 544.198ZM1101.32 528.666V544H1099.31V528.666H1101.32ZM1111.48 531.724C1112.95 531.724 1114.14 532.171 1115.05 533.066C1115.95 533.946 1116.41 535.222 1116.41 536.894V544H1114.43V537.18C1114.43 535.977 1114.13 535.061 1113.53 534.43C1112.93 533.785 1112.1 533.462 1111.06 533.462C1110.01 533.462 1109.16 533.792 1108.53 534.452C1107.92 535.112 1107.61 536.073 1107.61 537.334V544H1105.61V531.944H1107.61V533.66C1108.01 533.044 1108.54 532.567 1109.22 532.23C1109.9 531.893 1110.66 531.724 1111.48 531.724ZM1119.81 537.95C1119.81 536.703 1120.06 535.618 1120.56 534.694C1121.06 533.755 1121.75 533.029 1122.63 532.516C1123.52 532.003 1124.54 531.746 1125.69 531.746C1127.17 531.746 1128.38 532.105 1129.34 532.824C1130.31 533.543 1130.94 534.54 1131.25 535.816H1129.1C1128.89 535.083 1128.49 534.503 1127.89 534.078C1127.3 533.653 1126.57 533.44 1125.69 533.44C1124.54 533.44 1123.62 533.836 1122.91 534.628C1122.21 535.405 1121.86 536.513 1121.86 537.95C1121.86 539.402 1122.21 540.524 1122.91 541.316C1123.62 542.108 1124.54 542.504 1125.69 542.504C1126.57 542.504 1127.3 542.299 1127.89 541.888C1128.47 541.477 1128.88 540.891 1129.1 540.128H1131.25C1130.93 541.36 1130.28 542.35 1129.32 543.098C1128.35 543.831 1127.14 544.198 1125.69 544.198C1124.54 544.198 1123.52 543.941 1122.63 543.428C1121.75 542.915 1121.06 542.189 1120.56 541.25C1120.06 540.311 1119.81 539.211 1119.81 537.95ZM1135.44 544.132C1135.06 544.132 1134.74 544 1134.47 543.736C1134.21 543.472 1134.08 543.149 1134.08 542.768C1134.08 542.387 1134.21 542.064 1134.47 541.8C1134.74 541.536 1135.06 541.404 1135.44 541.404C1135.81 541.404 1136.12 541.536 1136.37 541.8C1136.63 542.064 1136.76 542.387 1136.76 542.768C1136.76 543.149 1136.63 543.472 1136.37 543.736C1136.12 544 1135.81 544.132 1135.44 544.132Z" fill="#B2B3CF"/>
<path d="M747.986 281.182C746.772 281.182 745.68 280.974 744.71 280.558C743.739 280.125 742.976 279.518 742.422 278.738C741.867 277.958 741.59 277.048 741.59 276.008H744.762C744.831 276.788 745.134 277.429 745.672 277.932C746.226 278.435 746.998 278.686 747.986 278.686C749.008 278.686 749.806 278.443 750.378 277.958C750.95 277.455 751.236 276.814 751.236 276.034C751.236 275.427 751.054 274.933 750.69 274.552C750.343 274.171 749.901 273.876 749.364 273.668C748.844 273.46 748.116 273.235 747.18 272.992C746.001 272.68 745.039 272.368 744.294 272.056C743.566 271.727 742.942 271.224 742.422 270.548C741.902 269.872 741.642 268.971 741.642 267.844C741.642 266.804 741.902 265.894 742.422 265.114C742.942 264.334 743.67 263.736 744.606 263.32C745.542 262.904 746.625 262.696 747.856 262.696C749.606 262.696 751.036 263.138 752.146 264.022C753.272 264.889 753.896 266.085 754.018 267.61H750.742C750.69 266.951 750.378 266.388 749.806 265.92C749.234 265.452 748.48 265.218 747.544 265.218C746.694 265.218 746.001 265.435 745.464 265.868C744.926 266.301 744.658 266.925 744.658 267.74C744.658 268.295 744.822 268.754 745.152 269.118C745.498 269.465 745.932 269.742 746.452 269.95C746.972 270.158 747.682 270.383 748.584 270.626C749.78 270.955 750.75 271.285 751.496 271.614C752.258 271.943 752.9 272.455 753.42 273.148C753.957 273.824 754.226 274.734 754.226 275.878C754.226 276.797 753.974 277.663 753.472 278.478C752.986 279.293 752.267 279.951 751.314 280.454C750.378 280.939 749.268 281.182 747.986 281.182ZM771.737 266.674V281H768.773V279.31C768.305 279.899 767.69 280.367 766.927 280.714C766.182 281.043 765.384 281.208 764.535 281.208C763.408 281.208 762.394 280.974 761.493 280.506C760.609 280.038 759.907 279.345 759.387 278.426C758.884 277.507 758.633 276.398 758.633 275.098V266.674H761.571V274.656C761.571 275.939 761.892 276.927 762.533 277.62C763.174 278.296 764.05 278.634 765.159 278.634C766.268 278.634 767.144 278.296 767.785 277.62C768.444 276.927 768.773 275.939 768.773 274.656V266.674H771.737ZM779.652 268.806C780.154 268.113 780.839 267.549 781.706 267.116C782.59 266.665 783.569 266.44 784.644 266.44C785.909 266.44 787.053 266.743 788.076 267.35C789.098 267.957 789.904 268.823 790.494 269.95C791.083 271.059 791.378 272.333 791.378 273.772C791.378 275.211 791.083 276.502 790.494 277.646C789.904 278.773 789.09 279.657 788.05 280.298C787.027 280.922 785.892 281.234 784.644 281.234C783.534 281.234 782.546 281.017 781.68 280.584C780.83 280.151 780.154 279.596 779.652 278.92V281H776.688V261.76H779.652V268.806ZM788.362 273.772C788.362 272.784 788.154 271.935 787.738 271.224C787.339 270.496 786.802 269.95 786.126 269.586C785.467 269.205 784.756 269.014 783.994 269.014C783.248 269.014 782.538 269.205 781.862 269.586C781.203 269.967 780.666 270.522 780.25 271.25C779.851 271.978 779.652 272.836 779.652 273.824C779.652 274.812 779.851 275.679 780.25 276.424C780.666 277.152 781.203 277.707 781.862 278.088C782.538 278.469 783.248 278.66 783.994 278.66C784.756 278.66 785.467 278.469 786.126 278.088C786.802 277.689 787.339 277.117 787.738 276.372C788.154 275.627 788.362 274.76 788.362 273.772ZM800.549 281.234C799.422 281.234 798.408 281.035 797.507 280.636C796.623 280.22 795.921 279.665 795.401 278.972C794.881 278.261 794.604 277.473 794.569 276.606H797.637C797.689 277.213 797.975 277.724 798.495 278.14C799.032 278.539 799.7 278.738 800.497 278.738C801.329 278.738 801.97 278.582 802.421 278.27C802.889 277.941 803.123 277.525 803.123 277.022C803.123 276.485 802.863 276.086 802.343 275.826C801.84 275.566 801.034 275.28 799.925 274.968C798.85 274.673 797.975 274.387 797.299 274.11C796.623 273.833 796.034 273.408 795.531 272.836C795.046 272.264 794.803 271.51 794.803 270.574C794.803 269.811 795.028 269.118 795.479 268.494C795.93 267.853 796.571 267.35 797.403 266.986C798.252 266.622 799.223 266.44 800.315 266.44C801.944 266.44 803.253 266.856 804.241 267.688C805.246 268.503 805.784 269.621 805.853 271.042H802.889C802.837 270.401 802.577 269.889 802.109 269.508C801.641 269.127 801.008 268.936 800.211 268.936C799.431 268.936 798.833 269.083 798.417 269.378C798.001 269.673 797.793 270.063 797.793 270.548C797.793 270.929 797.932 271.25 798.209 271.51C798.486 271.77 798.824 271.978 799.223 272.134C799.622 272.273 800.211 272.455 800.991 272.68C802.031 272.957 802.88 273.243 803.539 273.538C804.215 273.815 804.796 274.231 805.281 274.786C805.766 275.341 806.018 276.077 806.035 276.996C806.035 277.811 805.81 278.539 805.359 279.18C804.908 279.821 804.267 280.324 803.435 280.688C802.62 281.052 801.658 281.234 800.549 281.234ZM809.29 273.824C809.29 272.351 809.584 271.059 810.174 269.95C810.78 268.823 811.612 267.957 812.67 267.35C813.727 266.743 814.94 266.44 816.31 266.44C818.043 266.44 819.473 266.856 820.6 267.688C821.744 268.503 822.515 269.673 822.914 271.198H819.716C819.456 270.487 819.04 269.933 818.468 269.534C817.896 269.135 817.176 268.936 816.31 268.936C815.096 268.936 814.126 269.369 813.398 270.236C812.687 271.085 812.332 272.281 812.332 273.824C812.332 275.367 812.687 276.571 813.398 277.438C814.126 278.305 815.096 278.738 816.31 278.738C818.026 278.738 819.161 277.984 819.716 276.476H822.914C822.498 277.932 821.718 279.093 820.574 279.96C819.43 280.809 818.008 281.234 816.31 281.234C814.94 281.234 813.727 280.931 812.67 280.324C811.612 279.7 810.78 278.833 810.174 277.724C809.584 276.597 809.29 275.297 809.29 273.824ZM829.871 268.754C830.305 268.026 830.877 267.463 831.587 267.064C832.315 266.648 833.173 266.44 834.161 266.44V269.508H833.407C832.246 269.508 831.362 269.803 830.755 270.392C830.166 270.981 829.871 272.004 829.871 273.46V281H826.907V266.674H829.871V268.754ZM839.434 264.776C838.897 264.776 838.446 264.594 838.082 264.23C837.718 263.866 837.536 263.415 837.536 262.878C837.536 262.341 837.718 261.89 838.082 261.526C838.446 261.162 838.897 260.98 839.434 260.98C839.954 260.98 840.396 261.162 840.76 261.526C841.124 261.89 841.306 262.341 841.306 262.878C841.306 263.415 841.124 263.866 840.76 264.23C840.396 264.594 839.954 264.776 839.434 264.776ZM840.89 266.674V281H837.926V266.674H840.89ZM848.785 268.806C849.288 268.113 849.973 267.549 850.839 267.116C851.723 266.665 852.703 266.44 853.777 266.44C855.043 266.44 856.187 266.743 857.209 267.35C858.232 267.957 859.038 268.823 859.627 269.95C860.217 271.059 860.511 272.333 860.511 273.772C860.511 275.211 860.217 276.502 859.627 277.646C859.038 278.773 858.223 279.657 857.183 280.298C856.161 280.922 855.025 281.234 853.777 281.234C852.668 281.234 851.68 281.017 850.813 280.584C849.964 280.151 849.288 279.596 848.785 278.92V281H845.821V261.76H848.785V268.806ZM857.495 273.772C857.495 272.784 857.287 271.935 856.871 271.224C856.473 270.496 855.935 269.95 855.259 269.586C854.601 269.205 853.89 269.014 853.127 269.014C852.382 269.014 851.671 269.205 850.995 269.586C850.337 269.967 849.799 270.522 849.383 271.25C848.985 271.978 848.785 272.836 848.785 273.824C848.785 274.812 848.985 275.679 849.383 276.424C849.799 277.152 850.337 277.707 850.995 278.088C851.671 278.469 852.382 278.66 853.127 278.66C853.89 278.66 854.601 278.469 855.259 278.088C855.935 277.689 856.473 277.117 856.871 276.372C857.287 275.627 857.495 274.76 857.495 273.772ZM877.612 273.486C877.612 274.023 877.578 274.509 877.508 274.942H866.562C866.649 276.086 867.074 277.005 867.836 277.698C868.599 278.391 869.535 278.738 870.644 278.738C872.239 278.738 873.366 278.071 874.024 276.736H877.222C876.789 278.053 876 279.137 874.856 279.986C873.73 280.818 872.326 281.234 870.644 281.234C869.275 281.234 868.044 280.931 866.952 280.324C865.878 279.7 865.028 278.833 864.404 277.724C863.798 276.597 863.494 275.297 863.494 273.824C863.494 272.351 863.789 271.059 864.378 269.95C864.985 268.823 865.826 267.957 866.9 267.35C867.992 266.743 869.24 266.44 870.644 266.44C871.996 266.44 873.201 266.735 874.258 267.324C875.316 267.913 876.139 268.745 876.728 269.82C877.318 270.877 877.612 272.099 877.612 273.486ZM874.518 272.55C874.501 271.458 874.111 270.583 873.348 269.924C872.586 269.265 871.641 268.936 870.514 268.936C869.492 268.936 868.616 269.265 867.888 269.924C867.16 270.565 866.727 271.441 866.588 272.55H874.518ZM892.821 269.092V277.022C892.821 277.559 892.943 277.949 893.185 278.192C893.445 278.417 893.879 278.53 894.485 278.53H896.305V281H893.965C892.631 281 891.608 280.688 890.897 280.064C890.187 279.44 889.831 278.426 889.831 277.022V269.092H888.141V266.674H889.831V263.112H892.821V266.674H896.305V269.092H892.821ZM906.291 281.234C904.939 281.234 903.717 280.931 902.625 280.324C901.533 279.7 900.675 278.833 900.051 277.724C899.427 276.597 899.115 275.297 899.115 273.824C899.115 272.368 899.436 271.077 900.077 269.95C900.718 268.823 901.594 267.957 902.703 267.35C903.812 266.743 905.052 266.44 906.421 266.44C907.79 266.44 909.03 266.743 910.139 267.35C911.248 267.957 912.124 268.823 912.765 269.95C913.406 271.077 913.727 272.368 913.727 273.824C913.727 275.28 913.398 276.571 912.739 277.698C912.08 278.825 911.179 279.7 910.035 280.324C908.908 280.931 907.66 281.234 906.291 281.234ZM906.291 278.66C907.054 278.66 907.764 278.478 908.423 278.114C909.099 277.75 909.645 277.204 910.061 276.476C910.477 275.748 910.685 274.864 910.685 273.824C910.685 272.784 910.486 271.909 910.087 271.198C909.688 270.47 909.16 269.924 908.501 269.56C907.842 269.196 907.132 269.014 906.369 269.014C905.606 269.014 904.896 269.196 904.237 269.56C903.596 269.924 903.084 270.47 902.703 271.198C902.322 271.909 902.131 272.784 902.131 273.824C902.131 275.367 902.521 276.563 903.301 277.412C904.098 278.244 905.095 278.66 906.291 278.66ZM931.263 266.44C932.372 266.44 933.352 266.665 934.201 267.116C935.068 267.549 935.744 268.095 936.229 268.754V266.674H939.219V281.234C939.219 282.551 938.942 283.721 938.387 284.744C937.832 285.784 937.026 286.599 935.969 287.188C934.929 287.777 933.681 288.072 932.225 288.072C930.284 288.072 928.672 287.613 927.389 286.694C926.106 285.793 925.378 284.562 925.205 283.002H928.143C928.368 283.747 928.845 284.345 929.573 284.796C930.318 285.264 931.202 285.498 932.225 285.498C933.421 285.498 934.383 285.134 935.111 284.406C935.856 283.678 936.229 282.621 936.229 281.234V278.842C935.726 279.518 935.042 280.09 934.175 280.558C933.326 281.009 932.355 281.234 931.263 281.234C930.015 281.234 928.871 280.922 927.831 280.298C926.808 279.657 925.994 278.773 925.387 277.646C924.798 276.502 924.503 275.211 924.503 273.772C924.503 272.333 924.798 271.059 925.387 269.95C925.994 268.841 926.808 267.983 927.831 267.376C928.871 266.752 930.015 266.44 931.263 266.44ZM936.229 273.824C936.229 272.836 936.021 271.978 935.605 271.25C935.206 270.522 934.678 269.967 934.019 269.586C933.36 269.205 932.65 269.014 931.887 269.014C931.124 269.014 930.414 269.205 929.755 269.586C929.096 269.95 928.559 270.496 928.143 271.224C927.744 271.935 927.545 272.784 927.545 273.772C927.545 274.76 927.744 275.627 928.143 276.372C928.559 277.117 929.096 277.689 929.755 278.088C930.431 278.469 931.142 278.66 931.887 278.66C932.65 278.66 933.36 278.469 934.019 278.088C934.678 277.707 935.206 277.152 935.605 276.424C936.021 275.679 936.229 274.812 936.229 273.824ZM957.282 273.486C957.282 274.023 957.248 274.509 957.178 274.942H946.232C946.319 276.086 946.744 277.005 947.506 277.698C948.269 278.391 949.205 278.738 950.314 278.738C951.909 278.738 953.036 278.071 953.694 276.736H956.892C956.459 278.053 955.67 279.137 954.526 279.986C953.4 280.818 951.996 281.234 950.314 281.234C948.945 281.234 947.714 280.931 946.622 280.324C945.548 279.7 944.698 278.833 944.074 277.724C943.468 276.597 943.164 275.297 943.164 273.824C943.164 272.351 943.459 271.059 944.048 269.95C944.655 268.823 945.496 267.957 946.57 267.35C947.662 266.743 948.91 266.44 950.314 266.44C951.666 266.44 952.871 266.735 953.928 267.324C954.986 267.913 955.809 268.745 956.398 269.82C956.988 270.877 957.282 272.099 957.282 273.486ZM954.188 272.55C954.171 271.458 953.781 270.583 953.018 269.924C952.256 269.265 951.311 268.936 950.184 268.936C949.162 268.936 948.286 269.265 947.558 269.924C946.83 270.565 946.397 271.441 946.258 272.55H954.188ZM964.697 269.092V277.022C964.697 277.559 964.818 277.949 965.061 278.192C965.321 278.417 965.754 278.53 966.361 278.53H968.181V281H965.841C964.506 281 963.484 280.688 962.773 280.064C962.062 279.44 961.707 278.426 961.707 277.022V269.092H960.017V266.674H961.707V263.112H964.697V266.674H968.181V269.092H964.697ZM985.961 281.234C984.609 281.234 983.387 280.931 982.295 280.324C981.203 279.7 980.345 278.833 979.721 277.724C979.097 276.597 978.785 275.297 978.785 273.824C978.785 272.368 979.105 271.077 979.747 269.95C980.388 268.823 981.263 267.957 982.373 267.35C983.482 266.743 984.721 266.44 986.091 266.44C987.46 266.44 988.699 266.743 989.809 267.35C990.918 267.957 991.793 268.823 992.435 269.95C993.076 271.077 993.397 272.368 993.397 273.824C993.397 275.28 993.067 276.571 992.409 277.698C991.75 278.825 990.849 279.7 989.705 280.324C988.578 280.931 987.33 281.234 985.961 281.234ZM985.961 278.66C986.723 278.66 987.434 278.478 988.093 278.114C988.769 277.75 989.315 277.204 989.731 276.476C990.147 275.748 990.355 274.864 990.355 273.824C990.355 272.784 990.155 271.909 989.757 271.198C989.358 270.47 988.829 269.924 988.171 269.56C987.512 269.196 986.801 269.014 986.039 269.014C985.276 269.014 984.565 269.196 983.907 269.56C983.265 269.924 982.754 270.47 982.373 271.198C981.991 271.909 981.801 272.784 981.801 273.824C981.801 275.367 982.191 276.563 982.971 277.412C983.768 278.244 984.765 278.66 985.961 278.66ZM1010.34 266.674V281H1007.38V279.31C1006.91 279.899 1006.29 280.367 1005.53 280.714C1004.79 281.043 1003.99 281.208 1003.14 281.208C1002.01 281.208 1001 280.974 1000.1 280.506C999.213 280.038 998.511 279.345 997.991 278.426C997.488 277.507 997.237 276.398 997.237 275.098V266.674H1000.17V274.656C1000.17 275.939 1000.5 276.927 1001.14 277.62C1001.78 278.296 1002.65 278.634 1003.76 278.634C1004.87 278.634 1005.75 278.296 1006.39 277.62C1007.05 276.927 1007.38 275.939 1007.38 274.656V266.674H1010.34ZM1018.26 268.754C1018.69 268.026 1019.26 267.463 1019.97 267.064C1020.7 266.648 1021.56 266.44 1022.55 266.44V269.508H1021.79C1020.63 269.508 1019.75 269.803 1019.14 270.392C1018.55 270.981 1018.26 272.004 1018.26 273.46V281H1015.29V266.674H1018.26V268.754ZM1048.95 281H1045.99L1037.07 267.506V281H1034.1V262.904H1037.07L1045.99 276.372V262.904H1048.95V281ZM1067.01 273.486C1067.01 274.023 1066.98 274.509 1066.91 274.942H1055.96C1056.05 276.086 1056.47 277.005 1057.24 277.698C1058 278.391 1058.94 278.738 1060.04 278.738C1061.64 278.738 1062.77 278.071 1063.42 276.736H1066.62C1066.19 278.053 1065.4 279.137 1064.26 279.986C1063.13 280.818 1061.73 281.234 1060.04 281.234C1058.68 281.234 1057.44 280.931 1056.35 280.324C1055.28 279.7 1054.43 278.833 1053.8 277.724C1053.2 276.597 1052.89 275.297 1052.89 273.824C1052.89 272.351 1053.19 271.059 1053.78 269.95C1054.39 268.823 1055.23 267.957 1056.3 267.35C1057.39 266.743 1058.64 266.44 1060.04 266.44C1061.4 266.44 1062.6 266.735 1063.66 267.324C1064.72 267.913 1065.54 268.745 1066.13 269.82C1066.72 270.877 1067.01 272.099 1067.01 273.486ZM1063.92 272.55C1063.9 271.458 1063.51 270.583 1062.75 269.924C1061.99 269.265 1061.04 268.936 1059.91 268.936C1058.89 268.936 1058.02 269.265 1057.29 269.924C1056.56 270.565 1056.13 271.441 1055.99 272.55H1063.92ZM1090.21 266.674L1085.76 281H1082.64L1079.76 270.418L1076.87 281H1073.75L1069.28 266.674H1072.3L1075.29 278.192L1078.33 266.674H1081.42L1084.33 278.14L1087.3 266.674H1090.21ZM1098.66 281.234C1097.54 281.234 1096.52 281.035 1095.62 280.636C1094.74 280.22 1094.04 279.665 1093.52 278.972C1093 278.261 1092.72 277.473 1092.68 276.606H1095.75C1095.8 277.213 1096.09 277.724 1096.61 278.14C1097.15 278.539 1097.81 278.738 1098.61 278.738C1099.44 278.738 1100.09 278.582 1100.54 278.27C1101 277.941 1101.24 277.525 1101.24 277.022C1101.24 276.485 1100.98 276.086 1100.46 275.826C1099.96 275.566 1099.15 275.28 1098.04 274.968C1096.97 274.673 1096.09 274.387 1095.41 274.11C1094.74 273.833 1094.15 273.408 1093.65 272.836C1093.16 272.264 1092.92 271.51 1092.92 270.574C1092.92 269.811 1093.14 269.118 1093.59 268.494C1094.04 267.853 1094.69 267.35 1095.52 266.986C1096.37 266.622 1097.34 266.44 1098.43 266.44C1100.06 266.44 1101.37 266.856 1102.36 267.688C1103.36 268.503 1103.9 269.621 1103.97 271.042H1101C1100.95 270.401 1100.69 269.889 1100.22 269.508C1099.76 269.127 1099.12 268.936 1098.33 268.936C1097.55 268.936 1096.95 269.083 1096.53 269.378C1096.12 269.673 1095.91 270.063 1095.91 270.548C1095.91 270.929 1096.05 271.25 1096.32 271.51C1096.6 271.77 1096.94 271.978 1097.34 272.134C1097.74 272.273 1098.33 272.455 1099.11 272.68C1100.15 272.957 1101 273.243 1101.65 273.538C1102.33 273.815 1102.91 274.231 1103.4 274.786C1103.88 275.341 1104.13 276.077 1104.15 276.996C1104.15 277.811 1103.92 278.539 1103.47 279.18C1103.02 279.821 1102.38 280.324 1101.55 280.688C1100.74 281.052 1099.77 281.234 1098.66 281.234ZM1111.36 261.76V281H1108.39V261.76H1111.36ZM1129.42 273.486C1129.42 274.023 1129.38 274.509 1129.31 274.942H1118.37C1118.46 276.086 1118.88 277.005 1119.64 277.698C1120.41 278.391 1121.34 278.738 1122.45 278.738C1124.05 278.738 1125.17 278.071 1125.83 276.736H1129.03C1128.6 278.053 1127.81 279.137 1126.66 279.986C1125.54 280.818 1124.13 281.234 1122.45 281.234C1121.08 281.234 1119.85 280.931 1118.76 280.324C1117.68 279.7 1116.83 278.833 1116.21 277.724C1115.6 276.597 1115.3 275.297 1115.3 273.824C1115.3 272.351 1115.6 271.059 1116.18 269.95C1116.79 268.823 1117.63 267.957 1118.71 267.35C1119.8 266.743 1121.05 266.44 1122.45 266.44C1123.8 266.44 1125.01 266.735 1126.06 267.324C1127.12 267.913 1127.95 268.745 1128.53 269.82C1129.12 270.877 1129.42 272.099 1129.42 273.486ZM1126.32 272.55C1126.31 271.458 1125.92 270.583 1125.15 269.924C1124.39 269.265 1123.45 268.936 1122.32 268.936C1121.3 268.936 1120.42 269.265 1119.69 269.924C1118.97 270.565 1118.53 271.441 1118.39 272.55H1126.32ZM1136.83 269.092V277.022C1136.83 277.559 1136.95 277.949 1137.2 278.192C1137.46 278.417 1137.89 278.53 1138.5 278.53H1140.32V281H1137.98C1136.64 281 1135.62 280.688 1134.91 280.064C1134.2 279.44 1133.84 278.426 1133.84 277.022V269.092H1132.15V266.674H1133.84V263.112H1136.83V266.674H1140.32V269.092H1136.83ZM1147.55 269.092V277.022C1147.55 277.559 1147.67 277.949 1147.91 278.192C1148.17 278.417 1148.6 278.53 1149.21 278.53H1151.03V281H1148.69C1147.36 281 1146.33 280.688 1145.62 280.064C1144.91 279.44 1144.56 278.426 1144.56 277.022V269.092H1142.87V266.674H1144.56V263.112H1147.55V266.674H1151.03V269.092H1147.55ZM1167.93 273.486C1167.93 274.023 1167.9 274.509 1167.83 274.942H1156.88C1156.97 276.086 1157.39 277.005 1158.16 277.698C1158.92 278.391 1159.86 278.738 1160.96 278.738C1162.56 278.738 1163.69 278.071 1164.34 276.736H1167.54C1167.11 278.053 1166.32 279.137 1165.18 279.986C1164.05 280.818 1162.65 281.234 1160.96 281.234C1159.6 281.234 1158.36 280.931 1157.27 280.324C1156.2 279.7 1155.35 278.833 1154.72 277.724C1154.12 276.597 1153.81 275.297 1153.81 273.824C1153.81 272.351 1154.11 271.059 1154.7 269.95C1155.31 268.823 1156.15 267.957 1157.22 267.35C1158.31 266.743 1159.56 266.44 1160.96 266.44C1162.32 266.44 1163.52 266.735 1164.58 267.324C1165.64 267.913 1166.46 268.745 1167.05 269.82C1167.64 270.877 1167.93 272.099 1167.93 273.486ZM1164.84 272.55C1164.82 271.458 1164.43 270.583 1163.67 269.924C1162.91 269.265 1161.96 268.936 1160.83 268.936C1159.81 268.936 1158.94 269.265 1158.21 269.924C1157.48 270.565 1157.05 271.441 1156.91 272.55H1164.84ZM1174.85 268.754C1175.29 268.026 1175.86 267.463 1176.57 267.064C1177.3 266.648 1178.16 266.44 1179.14 266.44V269.508H1178.39C1177.23 269.508 1176.34 269.803 1175.74 270.392C1175.15 270.981 1174.85 272.004 1174.85 273.46V281H1171.89V266.674H1174.85V268.754Z" fill="#B2B3CF"/>
<path d="M803.965 78.9502C805.917 76.9976 809.083 76.9976 811.035 78.9502L844.05 111.965C846.002 113.917 846.002 117.083 844.05 119.035L811.035 152.05C809.083 154.002 805.917 154.002 803.965 152.05L770.95 119.035C768.998 117.083 768.998 113.917 770.95 111.965L803.965 78.9502Z" stroke="#26C1F2" stroke-width="2"/>
<path d="M798.112 126.224C796.469 126.224 794.997 125.957 793.696 125.424C792.395 124.891 791.349 124.101 790.56 123.056C789.792 122.011 789.387 120.752 789.344 119.28H795.168C795.253 120.112 795.541 120.752 796.032 121.2C796.523 121.627 797.163 121.84 797.952 121.84C798.763 121.84 799.403 121.659 799.872 121.296C800.341 120.912 800.576 120.389 800.576 119.728C800.576 119.173 800.384 118.715 800 118.352C799.637 117.989 799.179 117.691 798.624 117.456C798.091 117.221 797.323 116.955 796.32 116.656C794.869 116.208 793.685 115.76 792.768 115.312C791.851 114.864 791.061 114.203 790.4 113.328C789.739 112.453 789.408 111.312 789.408 109.904C789.408 107.813 790.165 106.181 791.68 105.008C793.195 103.813 795.168 103.216 797.6 103.216C800.075 103.216 802.069 103.813 803.584 105.008C805.099 106.181 805.909 107.824 806.016 109.936H800.096C800.053 109.211 799.787 108.645 799.296 108.24C798.805 107.813 798.176 107.6 797.408 107.6C796.747 107.6 796.213 107.781 795.808 108.144C795.403 108.485 795.2 108.987 795.2 109.648C795.2 110.373 795.541 110.939 796.224 111.344C796.907 111.749 797.973 112.187 799.424 112.656C800.875 113.147 802.048 113.616 802.944 114.064C803.861 114.512 804.651 115.163 805.312 116.016C805.973 116.869 806.304 117.968 806.304 119.312C806.304 120.592 805.973 121.755 805.312 122.8C804.672 123.845 803.733 124.677 802.496 125.296C801.259 125.915 799.797 126.224 798.112 126.224ZM821.864 126L816.424 118.512V126H810.952V102.32H816.424V115.408L821.832 108.144H828.584L821.16 117.104L828.648 126H821.864ZM834.765 106.288C833.805 106.288 833.015 106.011 832.397 105.456C831.799 104.88 831.501 104.176 831.501 103.344C831.501 102.491 831.799 101.787 832.397 101.232C833.015 100.656 833.805 100.368 834.765 100.368C835.703 100.368 836.471 100.656 837.069 101.232C837.687 101.787 837.997 102.491 837.997 103.344C837.997 104.176 837.687 104.88 837.069 105.456C836.471 106.011 835.703 106.288 834.765 106.288ZM837.485 108.144V126H832.013V108.144H837.485ZM848.202 102.32V126H842.73V102.32H848.202ZM858.92 102.32V126H853.448V102.32H858.92ZM866.917 106.288C865.957 106.288 865.168 106.011 864.549 105.456C863.952 104.88 863.653 104.176 863.653 103.344C863.653 102.491 863.952 101.787 864.549 101.232C865.168 100.656 865.957 100.368 866.917 100.368C867.856 100.368 868.624 100.656 869.221 101.232C869.84 101.787 870.149 102.491 870.149 103.344C870.149 104.176 869.84 104.88 869.221 105.456C868.624 106.011 867.856 106.288 866.917 106.288ZM869.637 108.144V126H864.165V108.144H869.637ZM885.763 107.952C887.853 107.952 889.517 108.635 890.755 110C892.013 111.344 892.643 113.2 892.643 115.568V126H887.203V116.304C887.203 115.109 886.893 114.181 886.275 113.52C885.656 112.859 884.824 112.528 883.779 112.528C882.733 112.528 881.901 112.859 881.283 113.52C880.664 114.181 880.355 115.109 880.355 116.304V126H874.883V108.144H880.355V110.512C880.909 109.723 881.656 109.104 882.595 108.656C883.533 108.187 884.589 107.952 885.763 107.952ZM914.557 116.784C914.557 117.296 914.525 117.829 914.461 118.384H902.077C902.163 119.493 902.515 120.347 903.133 120.944C903.773 121.52 904.552 121.808 905.469 121.808C906.835 121.808 907.784 121.232 908.317 120.08H914.141C913.843 121.253 913.299 122.309 912.509 123.248C911.741 124.187 910.771 124.923 909.597 125.456C908.424 125.989 907.112 126.256 905.661 126.256C903.912 126.256 902.355 125.883 900.989 125.136C899.624 124.389 898.557 123.323 897.789 121.936C897.021 120.549 896.637 118.928 896.637 117.072C896.637 115.216 897.011 113.595 897.757 112.208C898.525 110.821 899.592 109.755 900.957 109.008C902.323 108.261 903.891 107.888 905.661 107.888C907.389 107.888 908.925 108.251 910.269 108.976C911.613 109.701 912.659 110.736 913.405 112.08C914.173 113.424 914.557 114.992 914.557 116.784ZM908.957 115.344C908.957 114.405 908.637 113.659 907.997 113.104C907.357 112.549 906.557 112.272 905.597 112.272C904.68 112.272 903.901 112.539 903.261 113.072C902.643 113.605 902.259 114.363 902.109 115.344H908.957Z" fill="white"/>
<line x1="957.5" y1="74" x2="957.5" y2="157" stroke="#626381"/>
<path d="M1013.31 91.644L1007.68 107H1003.94L998.308 91.644H1001.61L1005.83 103.854L1010.03 91.644H1013.31ZM1017.6 93.36C1017.06 93.36 1016.6 93.1913 1016.24 92.854C1015.88 92.502 1015.71 92.0693 1015.71 91.556C1015.71 91.0427 1015.88 90.6173 1016.24 90.28C1016.6 89.928 1017.06 89.752 1017.6 89.752C1018.14 89.752 1018.59 89.928 1018.94 90.28C1019.31 90.6173 1019.49 91.0427 1019.49 91.556C1019.49 92.0693 1019.31 92.502 1018.94 92.854C1018.59 93.1913 1018.14 93.36 1017.6 93.36ZM1019.12 94.812V107H1016.04V94.812H1019.12ZM1026.12 96.704C1026.52 96.0587 1027.03 95.5527 1027.66 95.186C1028.31 94.8193 1029.04 94.636 1029.86 94.636V97.87H1029.05C1028.08 97.87 1027.35 98.0973 1026.85 98.552C1026.36 99.0067 1026.12 99.7987 1026.12 100.928V107H1023.04V94.812H1026.12V96.704ZM1036.4 97.342V103.238C1036.4 103.649 1036.5 103.949 1036.69 104.14C1036.89 104.316 1037.23 104.404 1037.7 104.404H1039.13V107H1037.19C1034.6 107 1033.3 105.739 1033.3 103.216V97.342H1031.85V94.812H1033.3V91.798H1036.4V94.812H1039.13V97.342H1036.4ZM1053.73 94.812V107H1050.63V105.46C1050.23 105.988 1049.71 106.406 1049.07 106.714C1048.44 107.007 1047.75 107.154 1047 107.154C1046.05 107.154 1045.2 106.956 1044.47 106.56C1043.74 106.149 1043.16 105.555 1042.73 104.778C1042.32 103.986 1042.12 103.047 1042.12 101.962V94.812H1045.2V101.522C1045.2 102.49 1045.44 103.238 1045.92 103.766C1046.41 104.279 1047.07 104.536 1047.9 104.536C1048.75 104.536 1049.42 104.279 1049.9 103.766C1050.39 103.238 1050.63 102.49 1050.63 101.522V94.812H1053.73ZM1056.86 100.862C1056.86 99.63 1057.1 98.5373 1057.58 97.584C1058.08 96.6307 1058.75 95.8973 1059.59 95.384C1060.44 94.8707 1061.38 94.614 1062.42 94.614C1063.33 94.614 1064.13 94.7973 1064.8 95.164C1065.49 95.5307 1066.04 95.9927 1066.45 96.55V94.812H1069.55V107H1066.45V105.218C1066.05 105.79 1065.5 106.267 1064.8 106.648C1064.11 107.015 1063.31 107.198 1062.4 107.198C1061.38 107.198 1060.44 106.934 1059.59 106.406C1058.75 105.878 1058.08 105.137 1057.58 104.184C1057.1 103.216 1056.86 102.109 1056.86 100.862ZM1066.45 100.906C1066.45 100.158 1066.3 99.52 1066.01 98.992C1065.72 98.4493 1065.32 98.0387 1064.82 97.76C1064.32 97.4667 1063.79 97.32 1063.22 97.32C1062.64 97.32 1062.12 97.4593 1061.63 97.738C1061.15 98.0167 1060.75 98.4273 1060.44 98.97C1060.15 99.498 1060 100.129 1060 100.862C1060 101.595 1060.15 102.241 1060.44 102.798C1060.75 103.341 1061.15 103.759 1061.63 104.052C1062.13 104.345 1062.66 104.492 1063.22 104.492C1063.79 104.492 1064.32 104.353 1064.82 104.074C1065.32 103.781 1065.72 103.37 1066.01 102.842C1066.3 102.299 1066.45 101.654 1066.45 100.906ZM1076.52 90.72V107H1073.44V90.72H1076.52ZM1085.82 99.3C1085.82 97.7893 1086.16 96.44 1086.83 95.252C1087.52 94.0493 1088.45 93.118 1089.62 92.458C1090.81 91.7833 1092.14 91.446 1093.61 91.446C1095.32 91.446 1096.83 91.886 1098.12 92.766C1099.41 93.646 1100.31 94.8633 1100.82 96.418H1097.28C1096.93 95.6847 1096.43 95.1347 1095.78 94.768C1095.15 94.4013 1094.42 94.218 1093.58 94.218C1092.69 94.218 1091.89 94.4307 1091.19 94.856C1090.5 95.2667 1089.95 95.8533 1089.56 96.616C1089.18 97.3787 1088.99 98.2733 1088.99 99.3C1088.99 100.312 1089.18 101.207 1089.56 101.984C1089.95 102.747 1090.5 103.341 1091.19 103.766C1091.89 104.177 1092.69 104.382 1093.58 104.382C1094.42 104.382 1095.15 104.199 1095.78 103.832C1096.43 103.451 1096.93 102.893 1097.28 102.16H1100.82C1100.31 103.729 1099.41 104.954 1098.12 105.834C1096.84 106.699 1095.34 107.132 1093.61 107.132C1092.14 107.132 1090.81 106.802 1089.62 106.142C1088.45 105.467 1087.52 104.536 1086.83 103.348C1086.16 102.16 1085.82 100.811 1085.82 99.3ZM1107.41 90.72V107H1104.33V90.72H1107.41ZM1110.54 100.862C1110.54 99.63 1110.79 98.5373 1111.27 97.584C1111.77 96.6307 1112.44 95.8973 1113.27 95.384C1114.12 94.8707 1115.07 94.614 1116.11 94.614C1117.02 94.614 1117.81 94.7973 1118.49 95.164C1119.17 95.5307 1119.72 95.9927 1120.14 96.55V94.812H1123.24V107H1120.14V105.218C1119.74 105.79 1119.19 106.267 1118.49 106.648C1117.8 107.015 1117 107.198 1116.09 107.198C1115.06 107.198 1114.12 106.934 1113.27 106.406C1112.44 105.878 1111.77 105.137 1111.27 104.184C1110.79 103.216 1110.54 102.109 1110.54 100.862ZM1120.14 100.906C1120.14 100.158 1119.99 99.52 1119.7 98.992C1119.4 98.4493 1119.01 98.0387 1118.51 97.76C1118.01 97.4667 1117.47 97.32 1116.9 97.32C1116.33 97.32 1115.8 97.4593 1115.32 97.738C1114.83 98.0167 1114.44 98.4273 1114.13 98.97C1113.84 99.498 1113.69 100.129 1113.69 100.862C1113.69 101.595 1113.84 102.241 1114.13 102.798C1114.44 103.341 1114.83 103.759 1115.32 104.052C1115.82 104.345 1116.34 104.492 1116.9 104.492C1117.47 104.492 1118.01 104.353 1118.51 104.074C1119.01 103.781 1119.4 103.37 1119.7 102.842C1119.99 102.299 1120.14 101.654 1120.14 100.906ZM1131.79 107.198C1130.79 107.198 1129.9 107.022 1129.11 106.67C1128.31 106.303 1127.68 105.812 1127.21 105.196C1126.76 104.58 1126.51 103.898 1126.47 103.15H1129.57C1129.63 103.619 1129.85 104.008 1130.25 104.316C1130.66 104.624 1131.17 104.778 1131.77 104.778C1132.35 104.778 1132.81 104.661 1133.13 104.426C1133.47 104.191 1133.64 103.891 1133.64 103.524C1133.64 103.128 1133.43 102.835 1133.02 102.644C1132.63 102.439 1131.99 102.219 1131.11 101.984C1130.2 101.764 1129.45 101.537 1128.86 101.302C1128.29 101.067 1127.79 100.708 1127.37 100.224C1126.96 99.74 1126.75 99.0873 1126.75 98.266C1126.75 97.5913 1126.94 96.9753 1127.32 96.418C1127.72 95.8607 1128.28 95.4207 1129 95.098C1129.73 94.7753 1130.59 94.614 1131.57 94.614C1133.02 94.614 1134.18 94.9807 1135.05 95.714C1135.91 96.4327 1136.39 97.408 1136.48 98.64H1133.53C1133.48 98.156 1133.28 97.7747 1132.91 97.496C1132.56 97.2027 1132.08 97.056 1131.48 97.056C1130.92 97.056 1130.49 97.1587 1130.18 97.364C1129.89 97.5693 1129.74 97.8553 1129.74 98.222C1129.74 98.6327 1129.95 98.948 1130.36 99.168C1130.77 99.3733 1131.41 99.586 1132.27 99.806C1133.15 100.026 1133.88 100.253 1134.45 100.488C1135.02 100.723 1135.52 101.089 1135.93 101.588C1136.35 102.072 1136.57 102.717 1136.59 103.524C1136.59 104.228 1136.39 104.859 1135.99 105.416C1135.61 105.973 1135.05 106.413 1134.32 106.736C1133.6 107.044 1132.76 107.198 1131.79 107.198ZM1144.66 107.198C1143.66 107.198 1142.77 107.022 1141.97 106.67C1141.18 106.303 1140.55 105.812 1140.08 105.196C1139.63 104.58 1139.38 103.898 1139.33 103.15H1142.44C1142.49 103.619 1142.72 104.008 1143.12 104.316C1143.53 104.624 1144.03 104.778 1144.64 104.778C1145.22 104.778 1145.68 104.661 1146 104.426C1146.34 104.191 1146.51 103.891 1146.51 103.524C1146.51 103.128 1146.3 102.835 1145.89 102.644C1145.49 102.439 1144.86 102.219 1143.98 101.984C1143.07 101.764 1142.32 101.537 1141.73 101.302C1141.16 101.067 1140.66 100.708 1140.24 100.224C1139.83 99.74 1139.62 99.0873 1139.62 98.266C1139.62 97.5913 1139.81 96.9753 1140.19 96.418C1140.59 95.8607 1141.15 95.4207 1141.86 95.098C1142.6 94.7753 1143.46 94.614 1144.44 94.614C1145.89 94.614 1147.05 94.9807 1147.91 95.714C1148.78 96.4327 1149.26 97.408 1149.34 98.64H1146.4C1146.35 98.156 1146.15 97.7747 1145.78 97.496C1145.43 97.2027 1144.95 97.056 1144.35 97.056C1143.79 97.056 1143.36 97.1587 1143.05 97.364C1142.76 97.5693 1142.61 97.8553 1142.61 98.222C1142.61 98.6327 1142.82 98.948 1143.23 99.168C1143.64 99.3733 1144.28 99.586 1145.14 99.806C1146.02 100.026 1146.75 100.253 1147.32 100.488C1147.89 100.723 1148.38 101.089 1148.79 101.588C1149.22 102.072 1149.44 102.717 1149.45 103.524C1149.45 104.228 1149.26 104.859 1148.86 105.416C1148.48 105.973 1147.92 106.413 1147.19 106.736C1146.47 107.044 1145.63 107.198 1144.66 107.198ZM1005.11 130.342H1002.97V140H999.848V130.342H998.462V127.812H999.848V127.196C999.848 125.7 1000.27 124.6 1001.12 123.896C1001.97 123.192 1003.26 122.862 1004.97 122.906V125.502C1004.23 125.487 1003.71 125.612 1003.41 125.876C1003.12 126.14 1002.97 126.617 1002.97 127.306V127.812H1005.11V130.342ZM1013.39 140.198C1012.22 140.198 1011.16 139.941 1010.23 139.428C1009.29 138.9 1008.55 138.159 1008 137.206C1007.48 136.253 1007.21 135.153 1007.21 133.906C1007.21 132.659 1007.48 131.559 1008.03 130.606C1008.58 129.653 1009.34 128.919 1010.29 128.406C1011.25 127.878 1012.31 127.614 1013.48 127.614C1014.66 127.614 1015.72 127.878 1016.67 128.406C1017.63 128.919 1018.37 129.653 1018.92 130.606C1019.47 131.559 1019.75 132.659 1019.75 133.906C1019.75 135.153 1019.47 136.253 1018.89 137.206C1018.34 138.159 1017.57 138.9 1016.61 139.428C1015.65 139.941 1014.58 140.198 1013.39 140.198ZM1013.39 137.514C1013.95 137.514 1014.47 137.382 1014.96 137.118C1015.45 136.839 1015.85 136.429 1016.14 135.886C1016.44 135.343 1016.58 134.683 1016.58 133.906C1016.58 132.747 1016.28 131.86 1015.66 131.244C1015.06 130.613 1014.32 130.298 1013.44 130.298C1012.56 130.298 1011.82 130.613 1011.22 131.244C1010.63 131.86 1010.34 132.747 1010.34 133.906C1010.34 135.065 1010.62 135.959 1011.19 136.59C1011.78 137.206 1012.51 137.514 1013.39 137.514ZM1025.97 129.704C1026.37 129.059 1026.88 128.553 1027.51 128.186C1028.16 127.819 1028.89 127.636 1029.71 127.636V130.87H1028.9C1027.93 130.87 1027.2 131.097 1026.7 131.552C1026.21 132.007 1025.97 132.799 1025.97 133.928V140H1022.89V127.812H1025.97V129.704ZM1041.93 137.404H1048.84V140H1038.37V137.624L1045.23 127.24H1038.37V124.644H1048.84V127.02L1041.93 137.404ZM1057.76 140.198C1056.58 140.198 1055.53 139.941 1054.59 139.428C1053.65 138.9 1052.91 138.159 1052.37 137.206C1051.84 136.253 1051.57 135.153 1051.57 133.906C1051.57 132.659 1051.85 131.559 1052.39 130.606C1052.95 129.653 1053.7 128.919 1054.65 128.406C1055.61 127.878 1056.67 127.614 1057.84 127.614C1059.02 127.614 1060.08 127.878 1061.03 128.406C1061.99 128.919 1062.74 129.653 1063.28 130.606C1063.84 131.559 1064.11 132.659 1064.11 133.906C1064.11 135.153 1063.83 136.253 1063.26 137.206C1062.7 138.159 1061.94 138.9 1060.97 139.428C1060.01 139.941 1058.94 140.198 1057.76 140.198ZM1057.76 137.514C1058.31 137.514 1058.83 137.382 1059.32 137.118C1059.82 136.839 1060.21 136.429 1060.51 135.886C1060.8 135.343 1060.95 134.683 1060.95 133.906C1060.95 132.747 1060.64 131.86 1060.02 131.244C1059.42 130.613 1058.68 130.298 1057.8 130.298C1056.92 130.298 1056.18 130.613 1055.58 131.244C1054.99 131.86 1054.7 132.747 1054.7 133.906C1054.7 135.065 1054.98 135.959 1055.56 136.59C1056.14 137.206 1056.88 137.514 1057.76 137.514ZM1072.67 140.198C1071.49 140.198 1070.44 139.941 1069.5 139.428C1068.56 138.9 1067.82 138.159 1067.28 137.206C1066.75 136.253 1066.48 135.153 1066.48 133.906C1066.48 132.659 1066.75 131.559 1067.3 130.606C1067.85 129.653 1068.61 128.919 1069.56 128.406C1070.52 127.878 1071.58 127.614 1072.75 127.614C1073.93 127.614 1074.99 127.878 1075.94 128.406C1076.9 128.919 1077.64 129.653 1078.19 130.606C1078.74 131.559 1079.02 132.659 1079.02 133.906C1079.02 135.153 1078.74 136.253 1078.17 137.206C1077.61 138.159 1076.85 138.9 1075.88 139.428C1074.92 139.941 1073.85 140.198 1072.67 140.198ZM1072.67 137.514C1073.22 137.514 1073.74 137.382 1074.23 137.118C1074.73 136.839 1075.12 136.429 1075.42 135.886C1075.71 135.343 1075.86 134.683 1075.86 133.906C1075.86 132.747 1075.55 131.86 1074.93 131.244C1074.33 130.613 1073.59 130.298 1072.71 130.298C1071.83 130.298 1071.09 130.613 1070.49 131.244C1069.9 131.86 1069.61 132.747 1069.61 133.906C1069.61 135.065 1069.89 135.959 1070.47 136.59C1071.05 137.206 1071.79 137.514 1072.67 137.514ZM1097.3 127.636C1098.79 127.636 1100 128.098 1100.91 129.022C1101.83 129.931 1102.29 131.207 1102.29 132.85V140H1099.21V133.268C1099.21 132.315 1098.97 131.589 1098.49 131.09C1098 130.577 1097.34 130.32 1096.51 130.32C1095.67 130.32 1095 130.577 1094.5 131.09C1094.02 131.589 1093.78 132.315 1093.78 133.268V140H1090.7V133.268C1090.7 132.315 1090.46 131.589 1089.97 131.09C1089.49 130.577 1088.83 130.32 1087.99 130.32C1087.14 130.32 1086.47 130.577 1085.97 131.09C1085.48 131.589 1085.24 132.315 1085.24 133.268V140H1082.16V127.812H1085.24V129.286C1085.64 128.773 1086.14 128.369 1086.76 128.076C1087.39 127.783 1088.08 127.636 1088.83 127.636C1089.78 127.636 1090.63 127.841 1091.38 128.252C1092.13 128.648 1092.71 129.22 1093.12 129.968C1093.51 129.264 1094.09 128.699 1094.83 128.274C1095.6 127.849 1096.42 127.636 1097.3 127.636Z" fill="white"/>
<line x1="791.5" y1="475" x2="791.5" y2="492" stroke="#626381"/>
<line x1="992.5" y1="475" x2="992.5" y2="492" stroke="#626381"/>
<path d="M679.279 483.322C679.279 481.826 679.616 480.484 680.291 479.296C680.965 478.093 681.882 477.155 683.041 476.48C684.214 475.805 685.512 475.468 686.935 475.468C688.607 475.468 690.066 475.871 691.313 476.678C692.559 477.485 693.469 478.629 694.041 480.11H691.643C691.217 479.186 690.601 478.475 689.795 477.976C689.003 477.477 688.049 477.228 686.935 477.228C685.864 477.228 684.903 477.477 684.053 477.976C683.202 478.475 682.535 479.186 682.051 480.11C681.567 481.019 681.325 482.09 681.325 483.322C681.325 484.539 681.567 485.61 682.051 486.534C682.535 487.443 683.202 488.147 684.053 488.646C684.903 489.145 685.864 489.394 686.935 489.394C688.049 489.394 689.003 489.152 689.795 488.668C690.601 488.169 691.217 487.458 691.643 486.534H694.041C693.469 488.001 692.559 489.137 691.313 489.944C690.066 490.736 688.607 491.132 686.935 491.132C685.512 491.132 684.214 490.802 683.041 490.142C681.882 489.467 680.965 488.536 680.291 487.348C679.616 486.16 679.279 484.818 679.279 483.322ZM697.153 484.928C697.153 483.696 697.402 482.618 697.901 481.694C698.399 480.755 699.081 480.029 699.947 479.516C700.827 479.003 701.802 478.746 702.873 478.746C703.929 478.746 704.845 478.973 705.623 479.428C706.4 479.883 706.979 480.455 707.361 481.144V478.944H709.385V491H707.361V488.756C706.965 489.46 706.371 490.047 705.579 490.516C704.801 490.971 703.892 491.198 702.851 491.198C701.78 491.198 700.812 490.934 699.947 490.406C699.081 489.878 698.399 489.137 697.901 488.184C697.402 487.231 697.153 486.145 697.153 484.928ZM707.361 484.95C707.361 484.041 707.177 483.249 706.811 482.574C706.444 481.899 705.945 481.386 705.315 481.034C704.699 480.667 704.017 480.484 703.269 480.484C702.521 480.484 701.839 480.66 701.223 481.012C700.607 481.364 700.115 481.877 699.749 482.552C699.382 483.227 699.199 484.019 699.199 484.928C699.199 485.852 699.382 486.659 699.749 487.348C700.115 488.023 700.607 488.543 701.223 488.91C701.839 489.262 702.521 489.438 703.269 489.438C704.017 489.438 704.699 489.262 705.315 488.91C705.945 488.543 706.444 488.023 706.811 487.348C707.177 486.659 707.361 485.859 707.361 484.95ZM715.65 480.902C716.002 480.213 716.501 479.677 717.146 479.296C717.806 478.915 718.605 478.724 719.544 478.724V480.792H719.016C716.772 480.792 715.65 482.009 715.65 484.444V491H713.648V478.944H715.65V480.902ZM733.735 484.51C733.735 484.891 733.713 485.295 733.669 485.72H724.033C724.106 486.908 724.51 487.839 725.243 488.514C725.991 489.174 726.893 489.504 727.949 489.504C728.814 489.504 729.533 489.306 730.105 488.91C730.692 488.499 731.102 487.957 731.337 487.282H733.493C733.17 488.441 732.525 489.387 731.557 490.12C730.589 490.839 729.386 491.198 727.949 491.198C726.805 491.198 725.778 490.941 724.869 490.428C723.974 489.915 723.27 489.189 722.757 488.25C722.244 487.297 721.987 486.197 721.987 484.95C721.987 483.703 722.236 482.611 722.735 481.672C723.234 480.733 723.93 480.015 724.825 479.516C725.734 479.003 726.776 478.746 727.949 478.746C729.093 478.746 730.105 478.995 730.985 479.494C731.865 479.993 732.54 480.682 733.009 481.562C733.493 482.427 733.735 483.41 733.735 484.51ZM731.667 484.092C731.667 483.329 731.498 482.677 731.161 482.134C730.824 481.577 730.362 481.159 729.775 480.88C729.203 480.587 728.565 480.44 727.861 480.44C726.849 480.44 725.984 480.763 725.265 481.408C724.561 482.053 724.158 482.948 724.055 484.092H731.667ZM748.258 484.51C748.258 484.891 748.236 485.295 748.192 485.72H738.556C738.629 486.908 739.032 487.839 739.766 488.514C740.514 489.174 741.416 489.504 742.472 489.504C743.337 489.504 744.056 489.306 744.628 488.91C745.214 488.499 745.625 487.957 745.86 487.282H748.016C747.693 488.441 747.048 489.387 746.08 490.12C745.112 490.839 743.909 491.198 742.472 491.198C741.328 491.198 740.301 490.941 739.392 490.428C738.497 489.915 737.793 489.189 737.28 488.25C736.766 487.297 736.51 486.197 736.51 484.95C736.51 483.703 736.759 482.611 737.258 481.672C737.756 480.733 738.453 480.015 739.348 479.516C740.257 479.003 741.298 478.746 742.472 478.746C743.616 478.746 744.628 478.995 745.508 479.494C746.388 479.993 747.062 480.682 747.532 481.562C748.016 482.427 748.258 483.41 748.258 484.51ZM746.19 484.092C746.19 483.329 746.021 482.677 745.684 482.134C745.346 481.577 744.884 481.159 744.298 480.88C743.726 480.587 743.088 480.44 742.384 480.44C741.372 480.44 740.506 480.763 739.788 481.408C739.084 482.053 738.68 482.948 738.578 484.092H746.19ZM753.782 480.902C754.134 480.213 754.633 479.677 755.278 479.296C755.938 478.915 756.738 478.724 757.676 478.724V480.792H757.148C754.904 480.792 753.782 482.009 753.782 484.444V491H751.78V478.944H753.782V480.902ZM765.135 491.198C764.211 491.198 763.383 491.044 762.649 490.736C761.916 490.413 761.337 489.973 760.911 489.416C760.486 488.844 760.251 488.191 760.207 487.458H762.275C762.334 488.059 762.613 488.551 763.111 488.932C763.625 489.313 764.292 489.504 765.113 489.504C765.876 489.504 766.477 489.335 766.917 488.998C767.357 488.661 767.577 488.235 767.577 487.722C767.577 487.194 767.343 486.805 766.873 486.556C766.404 486.292 765.678 486.035 764.695 485.786C763.801 485.551 763.067 485.317 762.495 485.082C761.938 484.833 761.454 484.473 761.043 484.004C760.647 483.52 760.449 482.889 760.449 482.112C760.449 481.496 760.633 480.931 760.999 480.418C761.366 479.905 761.887 479.501 762.561 479.208C763.236 478.9 764.006 478.746 764.871 478.746C766.206 478.746 767.284 479.083 768.105 479.758C768.927 480.433 769.367 481.357 769.425 482.53H767.423C767.379 481.899 767.123 481.393 766.653 481.012C766.199 480.631 765.583 480.44 764.805 480.44C764.087 480.44 763.515 480.594 763.089 480.902C762.664 481.21 762.451 481.613 762.451 482.112C762.451 482.508 762.576 482.838 762.825 483.102C763.089 483.351 763.412 483.557 763.793 483.718C764.189 483.865 764.732 484.033 765.421 484.224C766.287 484.459 766.991 484.693 767.533 484.928C768.076 485.148 768.538 485.485 768.919 485.94C769.315 486.395 769.521 486.989 769.535 487.722C769.535 488.382 769.352 488.976 768.985 489.504C768.619 490.032 768.098 490.45 767.423 490.758C766.763 491.051 766.001 491.198 765.135 491.198Z" fill="#B2B3CF"/>
<path d="M823.433 480.154C823.433 481.43 822.993 482.493 822.113 483.344C821.248 484.18 819.92 484.598 818.131 484.598H815.183V491H813.181V475.666H818.131C819.862 475.666 821.174 476.084 822.069 476.92C822.978 477.756 823.433 478.834 823.433 480.154ZM818.131 482.948C819.246 482.948 820.067 482.706 820.595 482.222C821.123 481.738 821.387 481.049 821.387 480.154C821.387 478.262 820.302 477.316 818.131 477.316H815.183V482.948H818.131ZM828.803 480.902C829.155 480.213 829.654 479.677 830.299 479.296C830.959 478.915 831.759 478.724 832.697 478.724V480.792H832.169C829.925 480.792 828.803 482.009 828.803 484.444V491H826.801V478.944H828.803V480.902ZM836.922 476.986C836.541 476.986 836.218 476.854 835.954 476.59C835.69 476.326 835.558 476.003 835.558 475.622C835.558 475.241 835.69 474.918 835.954 474.654C836.218 474.39 836.541 474.258 836.922 474.258C837.289 474.258 837.597 474.39 837.846 474.654C838.11 474.918 838.242 475.241 838.242 475.622C838.242 476.003 838.11 476.326 837.846 476.59C837.597 476.854 837.289 476.986 836.922 476.986ZM837.89 478.944V491H835.888V478.944H837.89ZM846.67 489.152L850.41 478.944H852.544L847.814 491H845.482L840.752 478.944H842.908L846.67 489.152ZM854.646 484.928C854.646 483.696 854.896 482.618 855.394 481.694C855.893 480.755 856.575 480.029 857.44 479.516C858.32 479.003 859.296 478.746 860.366 478.746C861.422 478.746 862.339 478.973 863.116 479.428C863.894 479.883 864.473 480.455 864.854 481.144V478.944H866.878V491H864.854V488.756C864.458 489.46 863.864 490.047 863.072 490.516C862.295 490.971 861.386 491.198 860.344 491.198C859.274 491.198 858.306 490.934 857.44 490.406C856.575 489.878 855.893 489.137 855.394 488.184C854.896 487.231 854.646 486.145 854.646 484.928ZM864.854 484.95C864.854 484.041 864.671 483.249 864.304 482.574C863.938 481.899 863.439 481.386 862.808 481.034C862.192 480.667 861.51 480.484 860.762 480.484C860.014 480.484 859.332 480.66 858.716 481.012C858.1 481.364 857.609 481.877 857.242 482.552C856.876 483.227 856.692 484.019 856.692 484.928C856.692 485.852 856.876 486.659 857.242 487.348C857.609 488.023 858.1 488.543 858.716 488.91C859.332 489.262 860.014 489.438 860.762 489.438C861.51 489.438 862.192 489.262 862.808 488.91C863.439 488.543 863.938 488.023 864.304 487.348C864.671 486.659 864.854 485.859 864.854 484.95ZM870.394 484.95C870.394 483.703 870.643 482.618 871.142 481.694C871.64 480.755 872.33 480.029 873.21 479.516C874.104 479.003 875.124 478.746 876.268 478.746C877.749 478.746 878.966 479.105 879.92 479.824C880.888 480.543 881.526 481.54 881.834 482.816H879.678C879.472 482.083 879.069 481.503 878.468 481.078C877.881 480.653 877.148 480.44 876.268 480.44C875.124 480.44 874.2 480.836 873.496 481.628C872.792 482.405 872.44 483.513 872.44 484.95C872.44 486.402 872.792 487.524 873.496 488.316C874.2 489.108 875.124 489.504 876.268 489.504C877.148 489.504 877.881 489.299 878.468 488.888C879.054 488.477 879.458 487.891 879.678 487.128H881.834C881.511 488.36 880.866 489.35 879.898 490.098C878.93 490.831 877.72 491.198 876.268 491.198C875.124 491.198 874.104 490.941 873.21 490.428C872.33 489.915 871.64 489.189 871.142 488.25C870.643 487.311 870.394 486.211 870.394 484.95ZM895.769 478.944L888.509 496.676H886.441L888.817 490.868L883.955 478.944H886.177L889.961 488.712L893.701 478.944H895.769ZM915.659 480.154C915.659 481.43 915.219 482.493 914.339 483.344C913.473 484.18 912.146 484.598 910.357 484.598H907.409V491H905.407V475.666H910.357C912.087 475.666 913.4 476.084 914.295 476.92C915.204 477.756 915.659 478.834 915.659 480.154ZM910.357 482.948C911.471 482.948 912.293 482.706 912.821 482.222C913.349 481.738 913.613 481.049 913.613 480.154C913.613 478.262 912.527 477.316 910.357 477.316H907.409V482.948H910.357ZM924.285 491.198C923.155 491.198 922.129 490.941 921.205 490.428C920.295 489.915 919.577 489.189 919.049 488.25C918.535 487.297 918.279 486.197 918.279 484.95C918.279 483.718 918.543 482.633 919.071 481.694C919.613 480.741 920.347 480.015 921.271 479.516C922.195 479.003 923.229 478.746 924.373 478.746C925.517 478.746 926.551 479.003 927.475 479.516C928.399 480.015 929.125 480.733 929.653 481.672C930.195 482.611 930.467 483.703 930.467 484.95C930.467 486.197 930.188 487.297 929.631 488.25C929.088 489.189 928.347 489.915 927.409 490.428C926.47 490.941 925.429 491.198 924.285 491.198ZM924.285 489.438C925.003 489.438 925.678 489.269 926.309 488.932C926.939 488.595 927.445 488.089 927.827 487.414C928.223 486.739 928.421 485.918 928.421 484.95C928.421 483.982 928.23 483.161 927.849 482.486C927.467 481.811 926.969 481.313 926.353 480.99C925.737 480.653 925.069 480.484 924.351 480.484C923.617 480.484 922.943 480.653 922.327 480.99C921.725 481.313 921.241 481.811 920.875 482.486C920.508 483.161 920.325 483.982 920.325 484.95C920.325 485.933 920.501 486.761 920.853 487.436C921.219 488.111 921.703 488.617 922.305 488.954C922.906 489.277 923.566 489.438 924.285 489.438ZM935.981 474.72V491H933.979V474.72H935.981ZM941.307 476.986C940.926 476.986 940.603 476.854 940.339 476.59C940.075 476.326 939.943 476.003 939.943 475.622C939.943 475.241 940.075 474.918 940.339 474.654C940.603 474.39 940.926 474.258 941.307 474.258C941.674 474.258 941.982 474.39 942.231 474.654C942.495 474.918 942.627 475.241 942.627 475.622C942.627 476.003 942.495 476.326 942.231 476.59C941.982 476.854 941.674 476.986 941.307 476.986ZM942.275 478.944V491H940.273V478.944H942.275ZM945.819 484.95C945.819 483.703 946.069 482.618 946.567 481.694C947.066 480.755 947.755 480.029 948.635 479.516C949.53 479.003 950.549 478.746 951.693 478.746C953.175 478.746 954.392 479.105 955.345 479.824C956.313 480.543 956.951 481.54 957.259 482.816H955.103C954.898 482.083 954.495 481.503 953.893 481.078C953.307 480.653 952.573 480.44 951.693 480.44C950.549 480.44 949.625 480.836 948.921 481.628C948.217 482.405 947.865 483.513 947.865 484.95C947.865 486.402 948.217 487.524 948.921 488.316C949.625 489.108 950.549 489.504 951.693 489.504C952.573 489.504 953.307 489.299 953.893 488.888C954.48 488.477 954.883 487.891 955.103 487.128H957.259C956.937 488.36 956.291 489.35 955.323 490.098C954.355 490.831 953.145 491.198 951.693 491.198C950.549 491.198 949.53 490.941 948.635 490.428C947.755 489.915 947.066 489.189 946.567 488.25C946.069 487.311 945.819 486.211 945.819 484.95ZM971.194 478.944L963.934 496.676H961.866L964.242 490.868L959.38 478.944H961.602L965.386 488.712L969.126 478.944H971.194Z" fill="#B2B3CF"/>
<path d="M1023.46 475.666V477.294H1019.28V491H1017.27V477.294H1013.07V475.666H1023.46ZM1037.8 484.51C1037.8 484.891 1037.78 485.295 1037.73 485.72H1028.1C1028.17 486.908 1028.57 487.839 1029.31 488.514C1030.06 489.174 1030.96 489.504 1032.01 489.504C1032.88 489.504 1033.6 489.306 1034.17 488.91C1034.76 488.499 1035.17 487.957 1035.4 487.282H1037.56C1037.24 488.441 1036.59 489.387 1035.62 490.12C1034.65 490.839 1033.45 491.198 1032.01 491.198C1030.87 491.198 1029.84 490.941 1028.93 490.428C1028.04 489.915 1027.34 489.189 1026.82 488.25C1026.31 487.297 1026.05 486.197 1026.05 484.95C1026.05 483.703 1026.3 482.611 1026.8 481.672C1027.3 480.733 1028 480.015 1028.89 479.516C1029.8 479.003 1030.84 478.746 1032.01 478.746C1033.16 478.746 1034.17 478.995 1035.05 479.494C1035.93 479.993 1036.6 480.682 1037.07 481.562C1037.56 482.427 1037.8 483.41 1037.8 484.51ZM1035.73 484.092C1035.73 483.329 1035.56 482.677 1035.23 482.134C1034.89 481.577 1034.43 481.159 1033.84 480.88C1033.27 480.587 1032.63 480.44 1031.93 480.44C1030.91 480.44 1030.05 480.763 1029.33 481.408C1028.63 482.053 1028.22 482.948 1028.12 484.092H1035.73ZM1043.32 480.902C1043.68 480.213 1044.18 479.677 1044.82 479.296C1045.48 478.915 1046.28 478.724 1047.22 478.724V480.792H1046.69C1044.45 480.792 1043.32 482.009 1043.32 484.444V491H1041.32V478.944H1043.32V480.902ZM1064.91 478.724C1065.85 478.724 1066.68 478.922 1067.42 479.318C1068.15 479.699 1068.73 480.279 1069.15 481.056C1069.58 481.833 1069.79 482.779 1069.79 483.894V491H1067.81V484.18C1067.81 482.977 1067.51 482.061 1066.91 481.43C1066.32 480.785 1065.52 480.462 1064.51 480.462C1063.47 480.462 1062.64 480.799 1062.03 481.474C1061.41 482.134 1061.1 483.095 1061.1 484.356V491H1059.12V484.18C1059.12 482.977 1058.82 482.061 1058.22 481.43C1057.63 480.785 1056.83 480.462 1055.82 480.462C1054.78 480.462 1053.95 480.799 1053.34 481.474C1052.72 482.134 1052.41 483.095 1052.41 484.356V491H1050.41V478.944H1052.41V480.682C1052.81 480.051 1053.34 479.567 1054 479.23C1054.67 478.893 1055.41 478.724 1056.22 478.724C1057.23 478.724 1058.12 478.951 1058.9 479.406C1059.68 479.861 1060.26 480.528 1060.64 481.408C1060.98 480.557 1061.53 479.897 1062.31 479.428C1063.09 478.959 1063.95 478.724 1064.91 478.724ZM1078.22 491.198C1077.3 491.198 1076.47 491.044 1075.74 490.736C1075 490.413 1074.43 489.973 1074 489.416C1073.57 488.844 1073.34 488.191 1073.3 487.458H1075.36C1075.42 488.059 1075.7 488.551 1076.2 488.932C1076.71 489.313 1077.38 489.504 1078.2 489.504C1078.96 489.504 1079.57 489.335 1080.01 488.998C1080.45 488.661 1080.67 488.235 1080.67 487.722C1080.67 487.194 1080.43 486.805 1079.96 486.556C1079.49 486.292 1078.77 486.035 1077.78 485.786C1076.89 485.551 1076.16 485.317 1075.58 485.082C1075.03 484.833 1074.54 484.473 1074.13 484.004C1073.74 483.52 1073.54 482.889 1073.54 482.112C1073.54 481.496 1073.72 480.931 1074.09 480.418C1074.45 479.905 1074.98 479.501 1075.65 479.208C1076.32 478.9 1077.09 478.746 1077.96 478.746C1079.29 478.746 1080.37 479.083 1081.19 479.758C1082.02 480.433 1082.46 481.357 1082.51 482.53H1080.51C1080.47 481.899 1080.21 481.393 1079.74 481.012C1079.29 480.631 1078.67 480.44 1077.89 480.44C1077.18 480.44 1076.6 480.594 1076.18 480.902C1075.75 481.21 1075.54 481.613 1075.54 482.112C1075.54 482.508 1075.66 482.838 1075.91 483.102C1076.18 483.351 1076.5 483.557 1076.88 483.718C1077.28 483.865 1077.82 484.033 1078.51 484.224C1079.38 484.459 1080.08 484.693 1080.62 484.928C1081.16 485.148 1081.63 485.485 1082.01 485.94C1082.4 486.395 1082.61 486.989 1082.62 487.722C1082.62 488.382 1082.44 488.976 1082.07 489.504C1081.71 490.032 1081.19 490.45 1080.51 490.758C1079.85 491.051 1079.09 491.198 1078.22 491.198ZM1104.85 491L1102.84 488.976C1102.1 489.753 1101.3 490.333 1100.45 490.714C1099.59 491.081 1098.63 491.264 1097.56 491.264C1096.51 491.264 1095.57 491.073 1094.75 490.692C1093.94 490.311 1093.31 489.768 1092.86 489.064C1092.42 488.36 1092.2 487.539 1092.2 486.6C1092.2 485.529 1092.5 484.591 1093.1 483.784C1093.71 482.963 1094.62 482.317 1095.8 481.848C1095.33 481.291 1095 480.777 1094.79 480.308C1094.59 479.839 1094.48 479.325 1094.48 478.768C1094.48 478.123 1094.64 477.543 1094.97 477.03C1095.3 476.502 1095.78 476.091 1096.4 475.798C1097.01 475.505 1097.72 475.358 1098.53 475.358C1099.32 475.358 1100.01 475.512 1100.6 475.82C1101.19 476.128 1101.63 476.561 1101.92 477.118C1102.21 477.661 1102.34 478.269 1102.32 478.944H1100.31C1100.33 478.343 1100.16 477.873 1099.81 477.536C1099.46 477.184 1099 477.008 1098.44 477.008C1097.86 477.008 1097.38 477.177 1097.01 477.514C1096.66 477.837 1096.49 478.255 1096.49 478.768C1096.49 479.208 1096.6 479.633 1096.84 480.044C1097.09 480.455 1097.5 480.961 1098.07 481.562L1102.65 486.16L1103.04 485.544L1104.54 483.036H1106.69L1104.89 486.16C1104.64 486.6 1104.35 487.062 1104.01 487.546L1107.46 491H1104.85ZM1097.56 489.548C1098.36 489.548 1099.07 489.394 1099.7 489.086C1100.34 488.778 1100.95 488.301 1101.52 487.656L1097.01 483.124C1095.14 483.843 1094.2 484.979 1094.2 486.534C1094.2 487.399 1094.51 488.118 1095.12 488.69C1095.75 489.262 1096.57 489.548 1097.56 489.548ZM1116.22 483.322C1116.22 481.826 1116.55 480.484 1117.23 479.296C1117.9 478.093 1118.82 477.155 1119.98 476.48C1121.15 475.805 1122.45 475.468 1123.87 475.468C1125.54 475.468 1127 475.871 1128.25 476.678C1129.5 477.485 1130.41 478.629 1130.98 480.11H1128.58C1128.15 479.186 1127.54 478.475 1126.73 477.976C1125.94 477.477 1124.99 477.228 1123.87 477.228C1122.8 477.228 1121.84 477.477 1120.99 477.976C1120.14 478.475 1119.47 479.186 1118.99 480.11C1118.5 481.019 1118.26 482.09 1118.26 483.322C1118.26 484.539 1118.5 485.61 1118.99 486.534C1119.47 487.443 1120.14 488.147 1120.99 488.646C1121.84 489.145 1122.8 489.394 1123.87 489.394C1124.99 489.394 1125.94 489.152 1126.73 488.668C1127.54 488.169 1128.15 487.458 1128.58 486.534H1130.98C1130.41 488.001 1129.5 489.137 1128.25 489.944C1127 490.736 1125.54 491.132 1123.87 491.132C1122.45 491.132 1121.15 490.802 1119.98 490.142C1118.82 489.467 1117.9 488.536 1117.23 487.348C1116.55 486.16 1116.22 484.818 1116.22 483.322ZM1140.1 491.198C1138.97 491.198 1137.94 490.941 1137.02 490.428C1136.11 489.915 1135.39 489.189 1134.86 488.25C1134.35 487.297 1134.09 486.197 1134.09 484.95C1134.09 483.718 1134.35 482.633 1134.88 481.694C1135.42 480.741 1136.16 480.015 1137.08 479.516C1138.01 479.003 1139.04 478.746 1140.18 478.746C1141.33 478.746 1142.36 479.003 1143.29 479.516C1144.21 480.015 1144.94 480.733 1145.46 481.672C1146.01 482.611 1146.28 483.703 1146.28 484.95C1146.28 486.197 1146 487.297 1145.44 488.25C1144.9 489.189 1144.16 489.915 1143.22 490.428C1142.28 490.941 1141.24 491.198 1140.1 491.198ZM1140.1 489.438C1140.81 489.438 1141.49 489.269 1142.12 488.932C1142.75 488.595 1143.26 488.089 1143.64 487.414C1144.03 486.739 1144.23 485.918 1144.23 484.95C1144.23 483.982 1144.04 483.161 1143.66 482.486C1143.28 481.811 1142.78 481.313 1142.16 480.99C1141.55 480.653 1140.88 480.484 1140.16 480.484C1139.43 480.484 1138.75 480.653 1138.14 480.99C1137.54 481.313 1137.05 481.811 1136.69 482.486C1136.32 483.161 1136.14 483.982 1136.14 484.95C1136.14 485.933 1136.31 486.761 1136.66 487.436C1137.03 488.111 1137.51 488.617 1138.12 488.954C1138.72 489.277 1139.38 489.438 1140.1 489.438ZM1155.66 478.724C1157.13 478.724 1158.32 479.171 1159.23 480.066C1160.14 480.946 1160.59 482.222 1160.59 483.894V491H1158.61V484.18C1158.61 482.977 1158.31 482.061 1157.71 481.43C1157.11 480.785 1156.29 480.462 1155.25 480.462C1154.19 480.462 1153.35 480.792 1152.72 481.452C1152.1 482.112 1151.79 483.073 1151.79 484.334V491H1149.79V478.944H1151.79V480.66C1152.19 480.044 1152.72 479.567 1153.4 479.23C1154.09 478.893 1154.84 478.724 1155.66 478.724ZM1163.99 484.928C1163.99 483.696 1164.24 482.618 1164.74 481.694C1165.24 480.755 1165.92 480.029 1166.79 479.516C1167.67 479.003 1168.65 478.746 1169.74 478.746C1170.68 478.746 1171.55 478.966 1172.35 479.406C1173.16 479.831 1173.78 480.396 1174.2 481.1V474.72H1176.23V491H1174.2V488.734C1173.81 489.453 1173.22 490.047 1172.44 490.516C1171.67 490.971 1170.76 491.198 1169.71 491.198C1168.64 491.198 1167.67 490.934 1166.79 490.406C1165.92 489.878 1165.24 489.137 1164.74 488.184C1164.24 487.231 1163.99 486.145 1163.99 484.928ZM1174.2 484.95C1174.2 484.041 1174.02 483.249 1173.65 482.574C1173.29 481.899 1172.79 481.386 1172.16 481.034C1171.54 480.667 1170.86 480.484 1170.11 480.484C1169.36 480.484 1168.68 480.66 1168.06 481.012C1167.45 481.364 1166.96 481.877 1166.59 482.552C1166.22 483.227 1166.04 484.019 1166.04 484.928C1166.04 485.852 1166.22 486.659 1166.59 487.348C1166.96 488.023 1167.45 488.543 1168.06 488.91C1168.68 489.262 1169.36 489.438 1170.11 489.438C1170.86 489.438 1171.54 489.262 1172.16 488.91C1172.79 488.543 1173.29 488.023 1173.65 487.348C1174.02 486.659 1174.2 485.859 1174.2 484.95ZM1181.52 476.986C1181.14 476.986 1180.82 476.854 1180.56 476.59C1180.29 476.326 1180.16 476.003 1180.16 475.622C1180.16 475.241 1180.29 474.918 1180.56 474.654C1180.82 474.39 1181.14 474.258 1181.52 474.258C1181.89 474.258 1182.2 474.39 1182.45 474.654C1182.71 474.918 1182.84 475.241 1182.84 475.622C1182.84 476.003 1182.71 476.326 1182.45 476.59C1182.2 476.854 1181.89 476.986 1181.52 476.986ZM1182.49 478.944V491H1180.49V478.944H1182.49ZM1189.23 480.594V487.7C1189.23 488.287 1189.35 488.705 1189.6 488.954C1189.85 489.189 1190.28 489.306 1190.9 489.306H1192.37V491H1190.57C1189.45 491 1188.62 490.743 1188.06 490.23C1187.5 489.717 1187.22 488.873 1187.22 487.7V480.594H1185.66V478.944H1187.22V475.908H1189.23V478.944H1192.37V480.594H1189.23ZM1196.71 476.986C1196.33 476.986 1196.01 476.854 1195.74 476.59C1195.48 476.326 1195.35 476.003 1195.35 475.622C1195.35 475.241 1195.48 474.918 1195.74 474.654C1196.01 474.39 1196.33 474.258 1196.71 474.258C1197.08 474.258 1197.39 474.39 1197.64 474.654C1197.9 474.918 1198.03 475.241 1198.03 475.622C1198.03 476.003 1197.9 476.326 1197.64 476.59C1197.39 476.854 1197.08 476.986 1196.71 476.986ZM1197.68 478.944V491H1195.68V478.944H1197.68ZM1207.23 491.198C1206.1 491.198 1205.07 490.941 1204.15 490.428C1203.24 489.915 1202.52 489.189 1201.99 488.25C1201.48 487.297 1201.22 486.197 1201.22 484.95C1201.22 483.718 1201.49 482.633 1202.02 481.694C1202.56 480.741 1203.29 480.015 1204.22 479.516C1205.14 479.003 1206.17 478.746 1207.32 478.746C1208.46 478.746 1209.5 479.003 1210.42 479.516C1211.34 480.015 1212.07 480.733 1212.6 481.672C1213.14 482.611 1213.41 483.703 1213.41 484.95C1213.41 486.197 1213.13 487.297 1212.58 488.25C1212.03 489.189 1211.29 489.915 1210.35 490.428C1209.41 490.941 1208.37 491.198 1207.23 491.198ZM1207.23 489.438C1207.95 489.438 1208.62 489.269 1209.25 488.932C1209.88 488.595 1210.39 488.089 1210.77 487.414C1211.17 486.739 1211.37 485.918 1211.37 484.95C1211.37 483.982 1211.17 483.161 1210.79 482.486C1210.41 481.811 1209.91 481.313 1209.3 480.99C1208.68 480.653 1208.01 480.484 1207.3 480.484C1206.56 480.484 1205.89 480.653 1205.27 480.99C1204.67 481.313 1204.19 481.811 1203.82 482.486C1203.45 483.161 1203.27 483.982 1203.27 484.95C1203.27 485.933 1203.45 486.761 1203.8 487.436C1204.16 488.111 1204.65 488.617 1205.25 488.954C1205.85 489.277 1206.51 489.438 1207.23 489.438ZM1222.8 478.724C1224.26 478.724 1225.45 479.171 1226.36 480.066C1227.27 480.946 1227.73 482.222 1227.73 483.894V491H1225.75V484.18C1225.75 482.977 1225.45 482.061 1224.84 481.43C1224.24 480.785 1223.42 480.462 1222.38 480.462C1221.32 480.462 1220.48 480.792 1219.85 481.452C1219.23 482.112 1218.93 483.073 1218.93 484.334V491H1216.92V478.944H1218.93V480.66C1219.32 480.044 1219.86 479.567 1220.53 479.23C1221.22 478.893 1221.98 478.724 1222.8 478.724ZM1236.14 491.198C1235.22 491.198 1234.39 491.044 1233.66 490.736C1232.92 490.413 1232.35 489.973 1231.92 489.416C1231.49 488.844 1231.26 488.191 1231.22 487.458H1233.28C1233.34 488.059 1233.62 488.551 1234.12 488.932C1234.63 489.313 1235.3 489.504 1236.12 489.504C1236.88 489.504 1237.49 489.335 1237.93 488.998C1238.37 488.661 1238.59 488.235 1238.59 487.722C1238.59 487.194 1238.35 486.805 1237.88 486.556C1237.41 486.292 1236.69 486.035 1235.7 485.786C1234.81 485.551 1234.08 485.317 1233.5 485.082C1232.95 484.833 1232.46 484.473 1232.05 484.004C1231.66 483.52 1231.46 482.889 1231.46 482.112C1231.46 481.496 1231.64 480.931 1232.01 480.418C1232.37 479.905 1232.9 479.501 1233.57 479.208C1234.24 478.9 1235.01 478.746 1235.88 478.746C1237.21 478.746 1238.29 479.083 1239.11 479.758C1239.94 480.433 1240.38 481.357 1240.43 482.53H1238.43C1238.39 481.899 1238.13 481.393 1237.66 481.012C1237.21 480.631 1236.59 480.44 1235.81 480.44C1235.1 480.44 1234.52 480.594 1234.1 480.902C1233.67 481.21 1233.46 481.613 1233.46 482.112C1233.46 482.508 1233.58 482.838 1233.83 483.102C1234.1 483.351 1234.42 483.557 1234.8 483.718C1235.2 483.865 1235.74 484.033 1236.43 484.224C1237.3 484.459 1238 484.693 1238.54 484.928C1239.08 485.148 1239.55 485.485 1239.93 485.94C1240.32 486.395 1240.53 486.989 1240.54 487.722C1240.54 488.382 1240.36 488.976 1239.99 489.504C1239.63 490.032 1239.11 490.45 1238.43 490.758C1237.77 491.051 1237.01 491.198 1236.14 491.198Z" fill="#B2B3CF"/>
<rect x="661.5" y="311.5" width="399" height="59" rx="29.5" stroke="#83839A"/>
<path d="M702.561 334.06L698.021 342.74V348H696.201V342.74L691.641 334.06H693.661L697.101 341.12L700.541 334.06H702.561ZM710.061 348.18C709.034 348.18 708.101 347.947 707.261 347.48C706.434 347.013 705.781 346.353 705.301 345.5C704.834 344.633 704.601 343.633 704.601 342.5C704.601 341.38 704.841 340.393 705.321 339.54C705.814 338.673 706.481 338.013 707.321 337.56C708.161 337.093 709.101 336.86 710.141 336.86C711.181 336.86 712.121 337.093 712.961 337.56C713.801 338.013 714.461 338.667 714.941 339.52C715.434 340.373 715.681 341.367 715.681 342.5C715.681 343.633 715.428 344.633 714.921 345.5C714.428 346.353 713.754 347.013 712.901 347.48C712.048 347.947 711.101 348.18 710.061 348.18ZM710.061 346.58C710.714 346.58 711.328 346.427 711.901 346.12C712.474 345.813 712.934 345.353 713.281 344.74C713.641 344.127 713.821 343.38 713.821 342.5C713.821 341.62 713.648 340.873 713.301 340.26C712.954 339.647 712.501 339.193 711.941 338.9C711.381 338.593 710.774 338.44 710.121 338.44C709.454 338.44 708.841 338.593 708.281 338.9C707.734 339.193 707.294 339.647 706.961 340.26C706.628 340.873 706.461 341.62 706.461 342.5C706.461 343.393 706.621 344.147 706.941 344.76C707.274 345.373 707.714 345.833 708.261 346.14C708.808 346.433 709.408 346.58 710.061 346.58ZM728.594 337.04V348H726.774V346.38C726.427 346.94 725.941 347.38 725.314 347.7C724.701 348.007 724.021 348.16 723.274 348.16C722.421 348.16 721.654 347.987 720.974 347.64C720.294 347.28 719.754 346.747 719.354 346.04C718.967 345.333 718.774 344.473 718.774 343.46V337.04H720.574V343.22C720.574 344.3 720.847 345.133 721.394 345.72C721.941 346.293 722.687 346.58 723.634 346.58C724.607 346.58 725.374 346.28 725.934 345.68C726.494 345.08 726.774 344.207 726.774 343.06V337.04H728.594ZM734.287 338.82C734.607 338.193 735.06 337.707 735.647 337.36C736.247 337.013 736.974 336.84 737.827 336.84V338.72H737.347C735.307 338.72 734.287 339.827 734.287 342.04V348H732.467V337.04H734.287V338.82ZM748.68 335.54V340.2H753.76V341.7H748.68V346.5H754.36V348H746.86V334.04H754.36V335.54H748.68ZM771.094 336.84C771.947 336.84 772.707 337.02 773.374 337.38C774.041 337.727 774.567 338.253 774.954 338.96C775.341 339.667 775.534 340.527 775.534 341.54V348H773.734V341.8C773.734 340.707 773.46 339.873 772.914 339.3C772.381 338.713 771.654 338.42 770.734 338.42C769.787 338.42 769.034 338.727 768.474 339.34C767.914 339.94 767.634 340.813 767.634 341.96V348H765.834V341.8C765.834 340.707 765.56 339.873 765.014 339.3C764.48 338.713 763.754 338.42 762.834 338.42C761.887 338.42 761.134 338.727 760.574 339.34C760.014 339.94 759.734 340.813 759.734 341.96V348H757.914V337.04H759.734V338.62C760.094 338.047 760.574 337.607 761.174 337.3C761.787 336.993 762.46 336.84 763.194 336.84C764.114 336.84 764.927 337.047 765.634 337.46C766.34 337.873 766.867 338.48 767.214 339.28C767.52 338.507 768.027 337.907 768.734 337.48C769.44 337.053 770.227 336.84 771.094 336.84ZM778.639 342.48C778.639 341.36 778.866 340.38 779.319 339.54C779.773 338.687 780.393 338.027 781.179 337.56C781.979 337.093 782.866 336.86 783.839 336.86C784.799 336.86 785.633 337.067 786.339 337.48C787.046 337.893 787.573 338.413 787.919 339.04V337.04H789.759V348H787.919V345.96C787.559 346.6 787.019 347.133 786.299 347.56C785.593 347.973 784.766 348.18 783.819 348.18C782.846 348.18 781.966 347.94 781.179 347.46C780.393 346.98 779.773 346.307 779.319 345.44C778.866 344.573 778.639 343.587 778.639 342.48ZM787.919 342.5C787.919 341.673 787.753 340.953 787.419 340.34C787.086 339.727 786.633 339.26 786.059 338.94C785.499 338.607 784.879 338.44 784.199 338.44C783.519 338.44 782.899 338.6 782.339 338.92C781.779 339.24 781.333 339.707 780.999 340.32C780.666 340.933 780.499 341.653 780.499 342.48C780.499 343.32 780.666 344.053 780.999 344.68C781.333 345.293 781.779 345.767 782.339 346.1C782.899 346.42 783.519 346.58 784.199 346.58C784.879 346.58 785.499 346.42 786.059 346.1C786.633 345.767 787.086 345.293 787.419 344.68C787.753 344.053 787.919 343.327 787.919 342.5ZM794.575 335.26C794.228 335.26 793.935 335.14 793.695 334.9C793.455 334.66 793.335 334.367 793.335 334.02C793.335 333.673 793.455 333.38 793.695 333.14C793.935 332.9 794.228 332.78 794.575 332.78C794.908 332.78 795.188 332.9 795.415 333.14C795.655 333.38 795.775 333.673 795.775 334.02C795.775 334.367 795.655 334.66 795.415 334.9C795.188 335.14 794.908 335.26 794.575 335.26ZM795.455 337.04V348H793.635V337.04H795.455ZM801.177 333.2V348H799.357V333.2H801.177Z" fill="#83839A"/>
<g opacity="0.5" filter="url(#filter0_f_1_4)">
<rect x="1093" y="341" width="151" height="29" rx="14.5" fill="#545AE8"/>
</g>
<rect x="1081" y="311" width="179" height="60" rx="30" fill="url(#paint0_linear_1_4)"/>
<path d="M1121.69 349.154C1120.66 349.154 1119.74 348.978 1118.92 348.626C1118.09 348.259 1117.45 347.746 1116.98 347.086C1116.51 346.426 1116.28 345.656 1116.28 344.776H1118.96C1119.02 345.436 1119.28 345.979 1119.73 346.404C1120.2 346.829 1120.85 347.042 1121.69 347.042C1122.55 347.042 1123.23 346.837 1123.71 346.426C1124.2 346.001 1124.44 345.458 1124.44 344.798C1124.44 344.285 1124.28 343.867 1123.98 343.544C1123.68 343.221 1123.31 342.972 1122.85 342.796C1122.41 342.62 1121.8 342.429 1121.01 342.224C1120.01 341.96 1119.19 341.696 1118.56 341.432C1117.95 341.153 1117.42 340.728 1116.98 340.156C1116.54 339.584 1116.32 338.821 1116.32 337.868C1116.32 336.988 1116.54 336.218 1116.98 335.558C1117.42 334.898 1118.04 334.392 1118.83 334.04C1119.62 333.688 1120.54 333.512 1121.58 333.512C1123.06 333.512 1124.27 333.886 1125.21 334.634C1126.16 335.367 1126.69 336.379 1126.79 337.67H1124.02C1123.98 337.113 1123.71 336.636 1123.23 336.24C1122.74 335.844 1122.11 335.646 1121.31 335.646C1120.6 335.646 1120.01 335.829 1119.55 336.196C1119.1 336.563 1118.87 337.091 1118.87 337.78C1118.87 338.249 1119.01 338.638 1119.29 338.946C1119.58 339.239 1119.95 339.474 1120.39 339.65C1120.83 339.826 1121.43 340.017 1122.19 340.222C1123.21 340.501 1124.03 340.779 1124.66 341.058C1125.3 341.337 1125.85 341.769 1126.29 342.356C1126.74 342.928 1126.97 343.698 1126.97 344.666C1126.97 345.443 1126.76 346.177 1126.33 346.866C1125.92 347.555 1125.31 348.113 1124.5 348.538C1123.71 348.949 1122.77 349.154 1121.69 349.154ZM1140.91 336.878V349H1138.4V347.57C1138 348.069 1137.48 348.465 1136.84 348.758C1136.2 349.037 1135.53 349.176 1134.81 349.176C1133.86 349.176 1133 348.978 1132.24 348.582C1131.49 348.186 1130.9 347.599 1130.46 346.822C1130.03 346.045 1129.82 345.106 1129.82 344.006V336.878H1132.3V343.632C1132.3 344.717 1132.57 345.553 1133.12 346.14C1133.66 346.712 1134.4 346.998 1135.34 346.998C1136.28 346.998 1137.02 346.712 1137.56 346.14C1138.12 345.553 1138.4 344.717 1138.4 343.632V336.878H1140.91ZM1146.72 338.682C1147.15 338.095 1147.73 337.619 1148.46 337.252C1149.21 336.871 1150.04 336.68 1150.95 336.68C1152.02 336.68 1152.99 336.937 1153.85 337.45C1154.72 337.963 1155.4 338.697 1155.9 339.65C1156.4 340.589 1156.64 341.667 1156.64 342.884C1156.64 344.101 1156.4 345.194 1155.9 346.162C1155.4 347.115 1154.71 347.863 1153.83 348.406C1152.96 348.934 1152 349.198 1150.95 349.198C1150.01 349.198 1149.17 349.015 1148.44 348.648C1147.72 348.281 1147.15 347.812 1146.72 347.24V349H1144.21V332.72H1146.72V338.682ZM1154.09 342.884C1154.09 342.048 1153.92 341.329 1153.56 340.728C1153.23 340.112 1152.77 339.65 1152.2 339.342C1151.64 339.019 1151.04 338.858 1150.4 338.858C1149.77 338.858 1149.16 339.019 1148.59 339.342C1148.04 339.665 1147.58 340.134 1147.23 340.75C1146.89 341.366 1146.72 342.092 1146.72 342.928C1146.72 343.764 1146.89 344.497 1147.23 345.128C1147.58 345.744 1148.04 346.213 1148.59 346.536C1149.16 346.859 1149.77 347.02 1150.4 347.02C1151.04 347.02 1151.64 346.859 1152.2 346.536C1152.77 346.199 1153.23 345.715 1153.56 345.084C1153.92 344.453 1154.09 343.72 1154.09 342.884ZM1163.52 349.198C1162.57 349.198 1161.71 349.029 1160.95 348.692C1160.2 348.34 1159.61 347.871 1159.17 347.284C1158.73 346.683 1158.49 346.015 1158.46 345.282H1161.06C1161.1 345.795 1161.35 346.228 1161.79 346.58C1162.24 346.917 1162.81 347.086 1163.48 347.086C1164.18 347.086 1164.73 346.954 1165.11 346.69C1165.5 346.411 1165.7 346.059 1165.7 345.634C1165.7 345.179 1165.48 344.842 1165.04 344.622C1164.62 344.402 1163.94 344.16 1163 343.896C1162.09 343.647 1161.35 343.405 1160.77 343.17C1160.2 342.935 1159.7 342.576 1159.28 342.092C1158.87 341.608 1158.66 340.97 1158.66 340.178C1158.66 339.533 1158.85 338.946 1159.23 338.418C1159.62 337.875 1160.16 337.45 1160.86 337.142C1161.58 336.834 1162.4 336.68 1163.33 336.68C1164.71 336.68 1165.81 337.032 1166.65 337.736C1167.5 338.425 1167.95 339.371 1168.01 340.574H1165.5C1165.46 340.031 1165.24 339.599 1164.84 339.276C1164.45 338.953 1163.91 338.792 1163.24 338.792C1162.58 338.792 1162.07 338.917 1161.72 339.166C1161.37 339.415 1161.19 339.745 1161.19 340.156C1161.19 340.479 1161.31 340.75 1161.54 340.97C1161.78 341.19 1162.07 341.366 1162.4 341.498C1162.74 341.615 1163.24 341.769 1163.9 341.96C1164.78 342.195 1165.5 342.437 1166.05 342.686C1166.63 342.921 1167.12 343.273 1167.53 343.742C1167.94 344.211 1168.15 344.835 1168.17 345.612C1168.17 346.301 1167.98 346.917 1167.59 347.46C1167.21 348.003 1166.67 348.428 1165.97 348.736C1165.28 349.044 1164.46 349.198 1163.52 349.198ZM1170.04 342.928C1170.04 341.681 1170.29 340.589 1170.79 339.65C1171.3 338.697 1172.01 337.963 1172.9 337.45C1173.8 336.937 1174.82 336.68 1175.98 336.68C1177.45 336.68 1178.66 337.032 1179.61 337.736C1180.58 338.425 1181.23 339.415 1181.57 340.706H1178.86C1178.64 340.105 1178.29 339.635 1177.81 339.298C1177.32 338.961 1176.71 338.792 1175.98 338.792C1174.95 338.792 1174.13 339.159 1173.52 339.892C1172.92 340.611 1172.61 341.623 1172.61 342.928C1172.61 344.233 1172.92 345.253 1173.52 345.986C1174.13 346.719 1174.95 347.086 1175.98 347.086C1177.43 347.086 1178.39 346.448 1178.86 345.172H1181.57C1181.22 346.404 1180.56 347.387 1179.59 348.12C1178.62 348.839 1177.42 349.198 1175.98 349.198C1174.82 349.198 1173.8 348.941 1172.9 348.428C1172.01 347.9 1171.3 347.167 1170.79 346.228C1170.29 345.275 1170.04 344.175 1170.04 342.928ZM1186.58 338.638C1186.94 338.022 1187.43 337.545 1188.03 337.208C1188.64 336.856 1189.37 336.68 1190.21 336.68V339.276H1189.57C1188.59 339.276 1187.84 339.525 1187.32 340.024C1186.83 340.523 1186.58 341.388 1186.58 342.62V349H1184.07V336.878H1186.58V338.638ZM1193.79 335.272C1193.33 335.272 1192.95 335.118 1192.64 334.81C1192.34 334.502 1192.18 334.121 1192.18 333.666C1192.18 333.211 1192.34 332.83 1192.64 332.522C1192.95 332.214 1193.33 332.06 1193.79 332.06C1194.23 332.06 1194.6 332.214 1194.91 332.522C1195.22 332.83 1195.37 333.211 1195.37 333.666C1195.37 334.121 1195.22 334.502 1194.91 334.81C1194.6 335.118 1194.23 335.272 1193.79 335.272ZM1195.02 336.878V349H1192.51V336.878H1195.02ZM1200.82 338.682C1201.25 338.095 1201.82 337.619 1202.56 337.252C1203.31 336.871 1204.13 336.68 1205.04 336.68C1206.11 336.68 1207.08 336.937 1207.95 337.45C1208.81 337.963 1209.5 338.697 1209.99 339.65C1210.49 340.589 1210.74 341.667 1210.74 342.884C1210.74 344.101 1210.49 345.194 1209.99 346.162C1209.5 347.115 1208.81 347.863 1207.93 348.406C1207.06 348.934 1206.1 349.198 1205.04 349.198C1204.11 349.198 1203.27 349.015 1202.54 348.648C1201.82 348.281 1201.25 347.812 1200.82 347.24V349H1198.31V332.72H1200.82V338.682ZM1208.19 342.884C1208.19 342.048 1208.01 341.329 1207.66 340.728C1207.32 340.112 1206.87 339.65 1206.3 339.342C1205.74 339.019 1205.14 338.858 1204.49 338.858C1203.86 338.858 1203.26 339.019 1202.69 339.342C1202.13 339.665 1201.68 340.134 1201.33 340.75C1200.99 341.366 1200.82 342.092 1200.82 342.928C1200.82 343.764 1200.99 344.497 1201.33 345.128C1201.68 345.744 1202.13 346.213 1202.69 346.536C1203.26 346.859 1203.86 347.02 1204.49 347.02C1205.14 347.02 1205.74 346.859 1206.3 346.536C1206.87 346.199 1207.32 345.715 1207.66 345.084C1208.01 344.453 1208.19 343.72 1208.19 342.884ZM1224.33 342.642C1224.33 343.097 1224.3 343.507 1224.24 343.874H1214.98C1215.06 344.842 1215.41 345.619 1216.06 346.206C1216.71 346.793 1217.5 347.086 1218.44 347.086C1219.79 347.086 1220.74 346.521 1221.3 345.392H1224C1223.64 346.507 1222.97 347.423 1222 348.142C1221.05 348.846 1219.86 349.198 1218.44 349.198C1217.28 349.198 1216.24 348.941 1215.31 348.428C1214.4 347.9 1213.68 347.167 1213.16 346.228C1212.64 345.275 1212.39 344.175 1212.39 342.928C1212.39 341.681 1212.64 340.589 1213.13 339.65C1213.65 338.697 1214.36 337.963 1215.27 337.45C1216.19 336.937 1217.25 336.68 1218.44 336.68C1219.58 336.68 1220.6 336.929 1221.49 337.428C1222.39 337.927 1223.09 338.631 1223.58 339.54C1224.08 340.435 1224.33 341.469 1224.33 342.642ZM1221.71 341.85C1221.7 340.926 1221.37 340.185 1220.72 339.628C1220.08 339.071 1219.28 338.792 1218.33 338.792C1217.46 338.792 1216.72 339.071 1216.1 339.628C1215.49 340.171 1215.12 340.911 1215 341.85H1221.71Z" fill="white"/>
<defs>
<filter id="filter0_f_1_4" x="1039" y="287" width="259" height="137" filterUnits="userSpaceOnUse" color-interpolation-filters="sRGB">
<feFlood flood-opacity="0" result="BackgroundImageFix"/>
<feBlend mode="normal" in="SourceGraphic" in2="BackgroundImageFix" result="shape"/>
<feGaussianBlur stdDeviation="27" result="effect1_foregroundBlur_1_4"/>
</filter>
<linearGradient id="paint0_linear_1_4" x1="1125.75" y1="311" x2="1206.2" y2="377.565" gradientUnits="userSpaceOnUse">
<stop stop-color="#545AE7"/>
<stop offset="1" stop-color="#393FCF"/>
</linearGradient>
</defs>
</svg>
